<?xml version="1.0" encoding="UTF-8" standalone="no"?>
<!DOCTYPE svg PUBLIC "-//W3C//DTD SVG 1.1//EN"
 "http://www.w3.org/Graphics/SVG/1.1/DTD/svg11.dtd">
<!-- Generated by graphviz version 3.0.0 (20220226.1711)
 -->
<!-- Title: myLijntekenaar Pages: 1 -->
<svg width="191pt" height="104pt"
 viewBox="0.00 0.00 191.00 104.00" xmlns="http://www.w3.org/2000/svg" xmlns:xlink="http://www.w3.org/1999/xlink">
<g id="graph0" class="graph" transform="scale(1 1) rotate(0) translate(4 100)">
<title>myLijntekenaar</title>
<polygon fill="white" stroke="transparent" points="-4,4 -4,-100 187,-100 187,4 -4,4"/>
<!-- Node1 -->
<g id="node1" class="node">
<title>Node1</title>
<g id="a_node1"><a xlink:title="this function draws a single line from a to b">
<polygon fill="#bfbfbf" stroke="black" points="100,-38.5 100,-57.5 183,-57.5 183,-38.5 100,-38.5"/>
<text text-anchor="middle" x="141.5" y="-45.5" font-family="Helvetica,sans-Serif" font-size="10.00">myLijntekenaar</text>
</a>
</g>
</g>
<!-- Node2 -->
<g id="node2" class="node">
<title>Node2</title>
<g id="a_node2"><a xlink:href="_a_p_i_8c.html#ac4ad5c13603a59a2aab3700e6b63744c" target="_top" xlink:title="This functions draw a figure with X amount of points.">
<polygon fill="white" stroke="black" points="0,-76.5 0,-95.5 64,-95.5 64,-76.5 0,-76.5"/>
<text text-anchor="middle" x="32" y="-83.5" font-family="Helvetica,sans-Serif" font-size="10.00">drawFigure</text>
</a>
</g>
</g>
<!-- Node1&#45;&gt;Node2 -->
<g id="edge1" class="edge">
<title>Node1&#45;&gt;Node2</title>
<path fill="none" stroke="midnightblue" d="M103.8,-60.97C89.48,-66.03 73.36,-71.73 60.12,-76.41"/>
<polygon fill="midnightblue" stroke="midnightblue" points="105.11,-64.22 113.37,-57.59 102.78,-57.62 105.11,-64.22"/>
</g>
<!-- Node3 -->
<g id="node3" class="node">
<title>Node3</title>
<g id="a_node3"><a xlink:href="_a_p_i_8c.html#ae23921117ee7fd3cb5b9a4e3e9a1bb7b" target="_top" xlink:title="This function draws multiple lines using mylijntekenaar function.">
<polygon fill="white" stroke="black" points="2,-38.5 2,-57.5 62,-57.5 62,-38.5 2,-38.5"/>
<text text-anchor="middle" x="32" y="-45.5" font-family="Helvetica,sans-Serif" font-size="10.00">drawLines</text>
</a>
</g>
</g>
<!-- Node1&#45;&gt;Node3 -->
<g id="edge2" class="edge">
<title>Node1&#45;&gt;Node3</title>
<path fill="none" stroke="midnightblue" d="M89.75,-48C80.34,-48 70.81,-48 62.31,-48"/>
<polygon fill="midnightblue" stroke="midnightblue" points="89.86,-51.5 99.86,-48 89.86,-44.5 89.86,-51.5"/>
</g>
<!-- Node4 -->
<g id="node4" class="node">
<title>Node4</title>
<g id="a_node4"><a xlink:href="_a_p_i_8c.html#a9b8680e16a18e527bda500039f049fdb" target="_top" xlink:title="This function draws a rectangle either filled or not.">
<polygon fill="white" stroke="black" points="3.5,-0.5 3.5,-19.5 60.5,-19.5 60.5,-0.5 3.5,-0.5"/>
<text text-anchor="middle" x="32" y="-7.5" font-family="Helvetica,sans-Serif" font-size="10.00">drawRect</text>
</a>
</g>
</g>
<!-- Node1&#45;&gt;Node4 -->
<g id="edge3" class="edge">
<title>Node1&#45;&gt;Node4</title>
<path fill="none" stroke="midnightblue" d="M103.8,-35.03C89.48,-29.97 73.36,-24.27 60.12,-19.59"/>
<polygon fill="midnightblue" stroke="midnightblue" points="102.78,-38.38 113.37,-38.41 105.11,-31.78 102.78,-38.38"/>
</g>
</g>
</svg>
