<?xml version="1.0" encoding="UTF-8" standalone="no"?>
<!DOCTYPE svg PUBLIC "-//W3C//DTD SVG 1.1//EN"
 "http://www.w3.org/Graphics/SVG/1.1/DTD/svg11.dtd">
<!-- Generated by graphviz version 3.0.0 (20220226.1711)
 -->
<!-- Title: Core/Src/API.c Pages: 1 -->
<svg width="2172pt" height="308pt"
 viewBox="0.00 0.00 2171.50 308.00" xmlns="http://www.w3.org/2000/svg" xmlns:xlink="http://www.w3.org/1999/xlink">
<g id="graph0" class="graph" transform="scale(1 1) rotate(0) translate(4 304)">
<title>Core/Src/API.c</title>
<polygon fill="white" stroke="transparent" points="-4,4 -4,-304 2167.5,-304 2167.5,4 -4,4"/>
<!-- Node1 -->
<g id="node1" class="node">
<title>Node1</title>
<g id="a_node1"><a xlink:title=": Library for Graphics.">
<polygon fill="#bfbfbf" stroke="black" points="1119,-280.5 1119,-299.5 1201,-299.5 1201,-280.5 1119,-280.5"/>
<text text-anchor="middle" x="1160" y="-287.5" font-family="Helvetica,sans-Serif" font-size="10.00">Core/Src/API.c</text>
</a>
</g>
</g>
<!-- Node2 -->
<g id="node2" class="node">
<title>Node2</title>
<g id="a_node2"><a xlink:href="_a_p_i_8h_source.html" target="_top" xlink:title=" ">
<polygon fill="white" stroke="black" points="220.5,-56.5 220.5,-75.5 261.5,-75.5 261.5,-56.5 220.5,-56.5"/>
<text text-anchor="middle" x="241" y="-63.5" font-family="Helvetica,sans-Serif" font-size="10.00">API.h</text>
</a>
</g>
</g>
<!-- Node1&#45;&gt;Node2 -->
<g id="edge1" class="edge">
<title>Node1&#45;&gt;Node2</title>
<path fill="none" stroke="midnightblue" d="M1118.84,-289.04C1016.66,-288.51 743.54,-283.2 520,-244 379.82,-219.42 292.73,-254.33 220,-132 211.04,-116.93 219.44,-97.58 228.13,-83.92"/>
<polygon fill="midnightblue" stroke="midnightblue" points="231.15,-85.71 233.99,-75.5 225.4,-81.72 231.15,-85.71"/>
</g>
<!-- Node10 -->
<g id="node10" class="node">
<title>Node10</title>
<g id="a_node10"><a xlink:href="front__layer_8h_source.html" target="_top" xlink:title=" ">
<polygon fill="white" stroke="black" points="529,-224.5 529,-243.5 599,-243.5 599,-224.5 529,-224.5"/>
<text text-anchor="middle" x="564" y="-231.5" font-family="Helvetica,sans-Serif" font-size="10.00">front_layer.h</text>
</a>
</g>
</g>
<!-- Node1&#45;&gt;Node10 -->
<g id="edge9" class="edge">
<title>Node1&#45;&gt;Node10</title>
<path fill="none" stroke="midnightblue" d="M1118.68,-287.01C1027.24,-282.29 800.97,-268.93 613,-244 611.75,-243.83 610.48,-243.66 609.19,-243.47"/>
<polygon fill="midnightblue" stroke="midnightblue" points="609.68,-240.01 599.26,-241.91 608.6,-246.92 609.68,-240.01"/>
</g>
<!-- Node15 -->
<g id="node15" class="node">
<title>Node15</title>
<g id="a_node15"><a xlink:href="bitmap_8h_source.html" target="_top" xlink:title=" ">
<polygon fill="white" stroke="black" points="630,-168.5 630,-187.5 684,-187.5 684,-168.5 630,-168.5"/>
<text text-anchor="middle" x="657" y="-175.5" font-family="Helvetica,sans-Serif" font-size="10.00">bitmap.h</text>
</a>
</g>
</g>
<!-- Node1&#45;&gt;Node15 -->
<g id="edge27" class="edge">
<title>Node1&#45;&gt;Node15</title>
<path fill="none" stroke="midnightblue" d="M1118.84,-288.52C1002.52,-286.72 677.73,-278.63 646,-244 634.44,-231.38 640.13,-211.34 646.87,-196.84"/>
<polygon fill="midnightblue" stroke="midnightblue" points="650.03,-198.34 651.5,-187.85 643.81,-195.13 650.03,-198.34"/>
</g>
<!-- Node16 -->
<g id="node16" class="node">
<title>Node16</title>
<g id="a_node16"><a xlink:title=" ">
<polygon fill="white" stroke="#bfbfbf" points="655,-224.5 655,-243.5 739,-243.5 739,-224.5 655,-224.5"/>
<text text-anchor="middle" x="697" y="-231.5" font-family="Helvetica,sans-Serif" font-size="10.00">fonts/Arial_32.h</text>
</a>
</g>
</g>
<!-- Node1&#45;&gt;Node16 -->
<g id="edge29" class="edge">
<title>Node1&#45;&gt;Node16</title>
<path fill="none" stroke="midnightblue" d="M1118.77,-285.34C1046.34,-278.73 891.35,-263.76 749.44,-243.97"/>
<polygon fill="midnightblue" stroke="midnightblue" points="749.64,-240.47 739.25,-242.54 748.67,-247.4 749.64,-240.47"/>
</g>
<!-- Node17 -->
<g id="node17" class="node">
<title>Node17</title>
<g id="a_node17"><a xlink:title=" ">
<polygon fill="white" stroke="#bfbfbf" points="757.5,-224.5 757.5,-243.5 836.5,-243.5 836.5,-224.5 757.5,-224.5"/>
<text text-anchor="middle" x="797" y="-231.5" font-family="Helvetica,sans-Serif" font-size="10.00">fonts/Arial_8.h</text>
</a>
</g>
</g>
<!-- Node1&#45;&gt;Node17 -->
<g id="edge30" class="edge">
<title>Node1&#45;&gt;Node17</title>
<path fill="none" stroke="midnightblue" d="M1118.77,-283.62C1060.56,-275.9 950.7,-260.92 846.61,-244.04"/>
<polygon fill="midnightblue" stroke="midnightblue" points="846.99,-240.56 836.56,-242.4 845.86,-247.47 846.99,-240.56"/>
</g>
<!-- Node18 -->
<g id="node18" class="node">
<title>Node18</title>
<g id="a_node18"><a xlink:title=" ">
<polygon fill="white" stroke="#bfbfbf" points="855,-224.5 855,-243.5 965,-243.5 965,-224.5 855,-224.5"/>
<text text-anchor="middle" x="910" y="-231.5" font-family="Helvetica,sans-Serif" font-size="10.00">fonts/Arial_Italic_32.h</text>
</a>
</g>
</g>
<!-- Node1&#45;&gt;Node18 -->
<g id="edge31" class="edge">
<title>Node1&#45;&gt;Node18</title>
<path fill="none" stroke="midnightblue" d="M1120.39,-280.44C1076.77,-271.02 1006.6,-255.87 959.42,-245.68"/>
<polygon fill="midnightblue" stroke="midnightblue" points="959.94,-242.21 949.43,-243.52 958.46,-249.05 959.94,-242.21"/>
</g>
<!-- Node19 -->
<g id="node19" class="node">
<title>Node19</title>
<g id="a_node19"><a xlink:title=" ">
<polygon fill="white" stroke="#bfbfbf" points="983,-224.5 983,-243.5 1087,-243.5 1087,-224.5 983,-224.5"/>
<text text-anchor="middle" x="1035" y="-231.5" font-family="Helvetica,sans-Serif" font-size="10.00">fonts/Arial_Italic_8.h</text>
</a>
</g>
</g>
<!-- Node1&#45;&gt;Node19 -->
<g id="edge32" class="edge">
<title>Node1&#45;&gt;Node19</title>
<path fill="none" stroke="midnightblue" d="M1140.19,-280.44C1119.71,-271.6 1087.52,-257.69 1064.14,-247.59"/>
<polygon fill="midnightblue" stroke="midnightblue" points="1065.28,-244.27 1054.71,-243.52 1062.51,-250.7 1065.28,-244.27"/>
</g>
<!-- Node20 -->
<g id="node20" class="node">
<title>Node20</title>
<g id="a_node20"><a xlink:title=" ">
<polygon fill="white" stroke="#bfbfbf" points="1105.5,-224.5 1105.5,-243.5 1214.5,-243.5 1214.5,-224.5 1105.5,-224.5"/>
<text text-anchor="middle" x="1160" y="-231.5" font-family="Helvetica,sans-Serif" font-size="10.00">fonts/Arial_Bold_32.h</text>
</a>
</g>
</g>
<!-- Node1&#45;&gt;Node20 -->
<g id="edge33" class="edge">
<title>Node1&#45;&gt;Node20</title>
<path fill="none" stroke="midnightblue" d="M1160,-280.08C1160,-273.01 1160,-262.86 1160,-253.99"/>
<polygon fill="midnightblue" stroke="midnightblue" points="1163.5,-253.75 1160,-243.75 1156.5,-253.75 1163.5,-253.75"/>
</g>
<!-- Node21 -->
<g id="node21" class="node">
<title>Node21</title>
<g id="a_node21"><a xlink:title=" ">
<polygon fill="white" stroke="#bfbfbf" points="1233,-224.5 1233,-243.5 1337,-243.5 1337,-224.5 1233,-224.5"/>
<text text-anchor="middle" x="1285" y="-231.5" font-family="Helvetica,sans-Serif" font-size="10.00">fonts/Arial_Bold_8.h</text>
</a>
</g>
</g>
<!-- Node1&#45;&gt;Node21 -->
<g id="edge34" class="edge">
<title>Node1&#45;&gt;Node21</title>
<path fill="none" stroke="midnightblue" d="M1179.81,-280.44C1200.29,-271.6 1232.48,-257.69 1255.86,-247.59"/>
<polygon fill="midnightblue" stroke="midnightblue" points="1257.49,-250.7 1265.29,-243.52 1254.72,-244.27 1257.49,-250.7"/>
</g>
<!-- Node22 -->
<g id="node22" class="node">
<title>Node22</title>
<g id="a_node22"><a xlink:title=" ">
<polygon fill="white" stroke="#bfbfbf" points="1355.5,-224.5 1355.5,-243.5 1460.5,-243.5 1460.5,-224.5 1355.5,-224.5"/>
<text text-anchor="middle" x="1408" y="-231.5" font-family="Helvetica,sans-Serif" font-size="10.00">fonts/Consolas_32.h</text>
</a>
</g>
</g>
<!-- Node1&#45;&gt;Node22 -->
<g id="edge35" class="edge">
<title>Node1&#45;&gt;Node22</title>
<path fill="none" stroke="midnightblue" d="M1199.3,-280.44C1242.56,-271.02 1312.17,-255.87 1358.97,-245.68"/>
<polygon fill="midnightblue" stroke="midnightblue" points="1359.86,-249.06 1368.89,-243.52 1358.37,-242.22 1359.86,-249.06"/>
</g>
<!-- Node23 -->
<g id="node23" class="node">
<title>Node23</title>
<g id="a_node23"><a xlink:title=" ">
<polygon fill="white" stroke="#bfbfbf" points="1479,-224.5 1479,-243.5 1579,-243.5 1579,-224.5 1479,-224.5"/>
<text text-anchor="middle" x="1529" y="-231.5" font-family="Helvetica,sans-Serif" font-size="10.00">fonts/Consolas_8.h</text>
</a>
</g>
</g>
<!-- Node1&#45;&gt;Node23 -->
<g id="edge36" class="edge">
<title>Node1&#45;&gt;Node23</title>
<path fill="none" stroke="midnightblue" d="M1201.13,-283.13C1258.6,-274.9 1366.47,-259.37 1468.61,-244.2"/>
<polygon fill="midnightblue" stroke="midnightblue" points="1469.42,-247.62 1478.79,-242.68 1468.39,-240.69 1469.42,-247.62"/>
</g>
<!-- Node24 -->
<g id="node24" class="node">
<title>Node24</title>
<g id="a_node24"><a xlink:title=" ">
<polygon fill="white" stroke="#bfbfbf" points="1597.5,-224.5 1597.5,-243.5 1728.5,-243.5 1728.5,-224.5 1597.5,-224.5"/>
<text text-anchor="middle" x="1663" y="-231.5" font-family="Helvetica,sans-Serif" font-size="10.00">fonts/Consolas_Italic_32.h</text>
</a>
</g>
</g>
<!-- Node1&#45;&gt;Node24 -->
<g id="edge37" class="edge">
<title>Node1&#45;&gt;Node24</title>
<path fill="none" stroke="midnightblue" d="M1201.04,-284.89C1275.58,-277.37 1438.47,-260.75 1586.95,-244.1"/>
<polygon fill="midnightblue" stroke="midnightblue" points="1587.61,-247.55 1597.16,-242.96 1586.83,-240.6 1587.61,-247.55"/>
</g>
<!-- Node25 -->
<g id="node25" class="node">
<title>Node25</title>
<g id="a_node25"><a xlink:title=" ">
<polygon fill="white" stroke="#bfbfbf" points="1746.5,-224.5 1746.5,-243.5 1871.5,-243.5 1871.5,-224.5 1746.5,-224.5"/>
<text text-anchor="middle" x="1809" y="-231.5" font-family="Helvetica,sans-Serif" font-size="10.00">fonts/Consolas_Italic_8.h</text>
</a>
</g>
</g>
<!-- Node1&#45;&gt;Node25 -->
<g id="edge38" class="edge">
<title>Node1&#45;&gt;Node25</title>
<path fill="none" stroke="midnightblue" d="M1201.06,-286.49C1294.28,-280.64 1529.26,-265.07 1736.16,-244.15"/>
<polygon fill="midnightblue" stroke="midnightblue" points="1736.7,-247.61 1746.3,-243.12 1736,-240.65 1736.7,-247.61"/>
</g>
<!-- Node26 -->
<g id="node26" class="node">
<title>Node26</title>
<g id="a_node26"><a xlink:title=" ">
<polygon fill="white" stroke="#bfbfbf" points="1890,-224.5 1890,-243.5 2020,-243.5 2020,-224.5 1890,-224.5"/>
<text text-anchor="middle" x="1955" y="-231.5" font-family="Helvetica,sans-Serif" font-size="10.00">fonts/Consolas_Bold_32.h</text>
</a>
</g>
</g>
<!-- Node1&#45;&gt;Node26 -->
<g id="edge39" class="edge">
<title>Node1&#45;&gt;Node26</title>
<path fill="none" stroke="midnightblue" d="M1201.12,-287.28C1309.98,-282.55 1614.91,-268.11 1879.47,-244.09"/>
<polygon fill="midnightblue" stroke="midnightblue" points="1880.01,-247.55 1889.65,-243.16 1879.38,-240.58 1880.01,-247.55"/>
</g>
<!-- Node27 -->
<g id="node27" class="node">
<title>Node27</title>
<g id="a_node27"><a xlink:title=" ">
<polygon fill="white" stroke="#bfbfbf" points="2038.5,-224.5 2038.5,-243.5 2163.5,-243.5 2163.5,-224.5 2038.5,-224.5"/>
<text text-anchor="middle" x="2101" y="-231.5" font-family="Helvetica,sans-Serif" font-size="10.00">fonts/Consolas_Bold_8.h</text>
</a>
</g>
</g>
<!-- Node1&#45;&gt;Node27 -->
<g id="edge40" class="edge">
<title>Node1&#45;&gt;Node27</title>
<path fill="none" stroke="midnightblue" d="M1201.24,-287.93C1324.84,-284.49 1703.23,-272.32 2028.12,-244.01"/>
<polygon fill="midnightblue" stroke="midnightblue" points="2028.54,-247.48 2038.2,-243.12 2027.93,-240.51 2028.54,-247.48"/>
</g>
<!-- Node3 -->
<g id="node3" class="node">
<title>Node3</title>
<g id="a_node3"><a xlink:title=" ">
<polygon fill="white" stroke="#bfbfbf" points="414,-0.5 414,-19.5 460,-19.5 460,-0.5 414,-0.5"/>
<text text-anchor="middle" x="437" y="-7.5" font-family="Helvetica,sans-Serif" font-size="10.00">stdio.h</text>
</a>
</g>
</g>
<!-- Node2&#45;&gt;Node3 -->
<g id="edge2" class="edge">
<title>Node2&#45;&gt;Node3</title>
<path fill="none" stroke="midnightblue" d="M261.6,-59.32C295.58,-49.96 363.64,-31.21 404.26,-20.02"/>
<polygon fill="midnightblue" stroke="midnightblue" points="405.25,-23.38 413.96,-17.35 403.39,-16.63 405.25,-23.38"/>
</g>
<!-- Node4 -->
<g id="node4" class="node">
<title>Node4</title>
<g id="a_node4"><a xlink:title=" ">
<polygon fill="white" stroke="#bfbfbf" points="498.5,-0.5 498.5,-19.5 547.5,-19.5 547.5,-0.5 498.5,-0.5"/>
<text text-anchor="middle" x="523" y="-7.5" font-family="Helvetica,sans-Serif" font-size="10.00">stdint.h</text>
</a>
</g>
</g>
<!-- Node2&#45;&gt;Node4 -->
<g id="edge3" class="edge">
<title>Node2&#45;&gt;Node4</title>
<path fill="none" stroke="midnightblue" d="M261.74,-61.03C309.73,-51.84 428.89,-29.02 488.25,-17.65"/>
<polygon fill="midnightblue" stroke="midnightblue" points="489.1,-21.05 498.27,-15.74 487.79,-14.18 489.1,-21.05"/>
</g>
<!-- Node5 -->
<g id="node5" class="node">
<title>Node5</title>
<g id="a_node5"><a xlink:title=" ">
<polygon fill="white" stroke="#bfbfbf" points="207.5,-0.5 207.5,-19.5 254.5,-19.5 254.5,-0.5 207.5,-0.5"/>
<text text-anchor="middle" x="231" y="-7.5" font-family="Helvetica,sans-Serif" font-size="10.00">math.h</text>
</a>
</g>
</g>
<!-- Node2&#45;&gt;Node5 -->
<g id="edge4" class="edge">
<title>Node2&#45;&gt;Node5</title>
<path fill="none" stroke="midnightblue" d="M239.35,-56.08C238.02,-48.93 236.12,-38.64 234.46,-29.69"/>
<polygon fill="midnightblue" stroke="midnightblue" points="237.88,-28.95 232.62,-19.75 231,-30.22 237.88,-28.95"/>
</g>
<!-- Node6 -->
<g id="node6" class="node">
<title>Node6</title>
<g id="a_node6"><a xlink:title=" ">
<polygon fill="white" stroke="#bfbfbf" points="140.5,-0.5 140.5,-19.5 189.5,-19.5 189.5,-0.5 140.5,-0.5"/>
<text text-anchor="middle" x="165" y="-7.5" font-family="Helvetica,sans-Serif" font-size="10.00">string.h</text>
</a>
</g>
</g>
<!-- Node2&#45;&gt;Node6 -->
<g id="edge5" class="edge">
<title>Node2&#45;&gt;Node6</title>
<path fill="none" stroke="midnightblue" d="M228.79,-56.32C217.22,-48.11 199.62,-35.6 185.84,-25.81"/>
<polygon fill="midnightblue" stroke="midnightblue" points="187.61,-22.77 177.43,-19.83 183.56,-28.48 187.61,-22.77"/>
</g>
<!-- Node7 -->
<g id="node7" class="node">
<title>Node7</title>
<g id="a_node7"><a xlink:title=" ">
<polygon fill="white" stroke="#bfbfbf" points="273,-0.5 273,-19.5 325,-19.5 325,-0.5 273,-0.5"/>
<text text-anchor="middle" x="299" y="-7.5" font-family="Helvetica,sans-Serif" font-size="10.00">stdarg.h</text>
</a>
</g>
</g>
<!-- Node2&#45;&gt;Node7 -->
<g id="edge6" class="edge">
<title>Node2&#45;&gt;Node7</title>
<path fill="none" stroke="midnightblue" d="M250.32,-56.32C258.89,-48.34 271.81,-36.31 282.19,-26.65"/>
<polygon fill="midnightblue" stroke="midnightblue" points="284.58,-29.21 289.51,-19.83 279.81,-24.09 284.58,-29.21"/>
</g>
<!-- Node8 -->
<g id="node8" class="node">
<title>Node8</title>
<g id="a_node8"><a xlink:title=" ">
<polygon fill="white" stroke="#bfbfbf" points="343,-0.5 343,-19.5 391,-19.5 391,-0.5 343,-0.5"/>
<text text-anchor="middle" x="367" y="-7.5" font-family="Helvetica,sans-Serif" font-size="10.00">stdlib.h</text>
</a>
</g>
</g>
<!-- Node2&#45;&gt;Node8 -->
<g id="edge7" class="edge">
<title>Node2&#45;&gt;Node8</title>
<path fill="none" stroke="midnightblue" d="M260.97,-56.44C281.61,-47.6 314.06,-33.69 337.63,-23.59"/>
<polygon fill="midnightblue" stroke="midnightblue" points="339.32,-26.67 347.13,-19.52 336.56,-20.24 339.32,-26.67"/>
</g>
<!-- Node9 -->
<g id="node9" class="node">
<title>Node9</title>
<g id="a_node9"><a xlink:title=" ">
<polygon fill="white" stroke="#bfbfbf" points="0,-0.5 0,-19.5 122,-19.5 122,-0.5 0,-0.5"/>
<text text-anchor="middle" x="61" y="-7.5" font-family="Helvetica,sans-Serif" font-size="10.00">stm32_ub_vga_screen.h</text>
</a>
</g>
</g>
<!-- Node2&#45;&gt;Node9 -->
<g id="edge8" class="edge">
<title>Node2&#45;&gt;Node9</title>
<path fill="none" stroke="midnightblue" d="M220.35,-58.81C190.89,-49.97 136.28,-33.58 99.3,-22.49"/>
<polygon fill="midnightblue" stroke="midnightblue" points="99.95,-19.03 89.37,-19.51 97.94,-25.74 99.95,-19.03"/>
</g>
<!-- Node10&#45;&gt;Node4 -->
<g id="edge10" class="edge">
<title>Node10&#45;&gt;Node4</title>
<path fill="none" stroke="midnightblue" d="M563.89,-224.35C563.35,-198.38 560.3,-118.96 543,-56 540.45,-46.73 536.28,-36.91 532.41,-28.82"/>
<polygon fill="midnightblue" stroke="midnightblue" points="535.42,-27.03 527.8,-19.67 529.17,-30.18 535.42,-27.03"/>
</g>
<!-- Node11 -->
<g id="node11" class="node">
<title>Node11</title>
<g id="a_node11"><a xlink:href="main_8h.html" target="_top" xlink:title=": Header for main.c file. This file contains the common defines of the application.">
<polygon fill="white" stroke="black" points="332,-168.5 332,-187.5 378,-187.5 378,-168.5 332,-168.5"/>
<text text-anchor="middle" x="355" y="-175.5" font-family="Helvetica,sans-Serif" font-size="10.00">main.h</text>
</a>
</g>
</g>
<!-- Node10&#45;&gt;Node11 -->
<g id="edge11" class="edge">
<title>Node10&#45;&gt;Node11</title>
<path fill="none" stroke="midnightblue" d="M530.88,-224.44C491.79,-214.34 427.16,-197.64 388.08,-187.55"/>
<polygon fill="midnightblue" stroke="midnightblue" points="388.81,-184.12 378.25,-185.01 387.06,-190.9 388.81,-184.12"/>
</g>
<!-- Node14 -->
<g id="node14" class="node">
<title>Node14</title>
<g id="a_node14"><a xlink:href="error_8h_source.html" target="_top" xlink:title=" ">
<polygon fill="white" stroke="black" points="470,-56.5 470,-75.5 514,-75.5 514,-56.5 470,-56.5"/>
<text text-anchor="middle" x="492" y="-63.5" font-family="Helvetica,sans-Serif" font-size="10.00">error.h</text>
</a>
</g>
</g>
<!-- Node10&#45;&gt;Node14 -->
<g id="edge24" class="edge">
<title>Node10&#45;&gt;Node14</title>
<path fill="none" stroke="midnightblue" d="M560.13,-224.08C548.75,-197.83 515.22,-120.55 499.86,-85.12"/>
<polygon fill="midnightblue" stroke="midnightblue" points="502.91,-83.35 495.72,-75.57 496.48,-86.14 502.91,-83.35"/>
</g>
<!-- Node11&#45;&gt;Node3 -->
<g id="edge14" class="edge">
<title>Node11&#45;&gt;Node3</title>
<path fill="none" stroke="midnightblue" d="M359.41,-168.08C372.43,-141.72 410.88,-63.88 428.28,-28.66"/>
<polygon fill="midnightblue" stroke="midnightblue" points="431.48,-30.08 432.77,-19.57 425.2,-26.98 431.48,-30.08"/>
</g>
<!-- Node11&#45;&gt;Node4 -->
<g id="edge13" class="edge">
<title>Node11&#45;&gt;Node4</title>
<path fill="none" stroke="midnightblue" d="M378.02,-176.76C411.15,-175.14 472.14,-167.2 507,-132 533.75,-105 530.87,-56.43 526.75,-29.77"/>
<polygon fill="midnightblue" stroke="midnightblue" points="530.17,-29.06 524.99,-19.82 523.28,-30.28 530.17,-29.06"/>
</g>
<!-- Node11&#45;&gt;Node6 -->
<g id="edge15" class="edge">
<title>Node11&#45;&gt;Node6</title>
<path fill="none" stroke="midnightblue" d="M331.81,-174.71C302.59,-170.71 252.29,-160 220,-132 188.73,-104.88 174.28,-56.36 168.43,-29.74"/>
<polygon fill="midnightblue" stroke="midnightblue" points="171.83,-28.91 166.42,-19.8 164.97,-30.3 171.83,-28.91"/>
</g>
<!-- Node11&#45;&gt;Node8 -->
<g id="edge22" class="edge">
<title>Node11&#45;&gt;Node8</title>
<path fill="none" stroke="midnightblue" d="M355.65,-168.08C357.53,-141.95 363.08,-65.21 365.66,-29.58"/>
<polygon fill="midnightblue" stroke="midnightblue" points="369.15,-29.79 366.38,-19.57 362.17,-29.29 369.15,-29.79"/>
</g>
<!-- Node11&#45;&gt;Node9 -->
<g id="edge23" class="edge">
<title>Node11&#45;&gt;Node9</title>
<path fill="none" stroke="midnightblue" d="M331.95,-173.68C300.22,-168.4 242.01,-156.12 198,-132 146.74,-103.91 98.33,-53.61 75.2,-27.6"/>
<polygon fill="midnightblue" stroke="midnightblue" points="77.57,-24.99 68.35,-19.77 72.3,-29.6 77.57,-24.99"/>
</g>
<!-- Node12 -->
<g id="node12" class="node">
<title>Node12</title>
<g id="a_node12"><a xlink:title=" ">
<polygon fill="white" stroke="#bfbfbf" points="410,-112.5 410,-131.5 498,-131.5 498,-112.5 410,-112.5"/>
<text text-anchor="middle" x="454" y="-119.5" font-family="Helvetica,sans-Serif" font-size="10.00">stm32f4xx_hal.h</text>
</a>
</g>
</g>
<!-- Node11&#45;&gt;Node12 -->
<g id="edge12" class="edge">
<title>Node11&#45;&gt;Node12</title>
<path fill="none" stroke="midnightblue" d="M370.91,-168.32C386.64,-159.74 410.94,-146.49 429.21,-136.52"/>
<polygon fill="midnightblue" stroke="midnightblue" points="431.03,-139.52 438.13,-131.65 427.68,-133.37 431.03,-139.52"/>
</g>
<!-- Node13 -->
<g id="node13" class="node">
<title>Node13</title>
<g id="a_node13"><a xlink:href="logic__layer_8h_source.html" target="_top" xlink:title=" ">
<polygon fill="white" stroke="black" points="228.5,-112.5 228.5,-131.5 299.5,-131.5 299.5,-112.5 228.5,-112.5"/>
<text text-anchor="middle" x="264" y="-119.5" font-family="Helvetica,sans-Serif" font-size="10.00">logic_layer.h</text>
</a>
</g>
</g>
<!-- Node11&#45;&gt;Node13 -->
<g id="edge16" class="edge">
<title>Node11&#45;&gt;Node13</title>
<path fill="none" stroke="midnightblue" d="M340.38,-168.32C326.05,-159.82 303.99,-146.73 287.25,-136.8"/>
<polygon fill="midnightblue" stroke="midnightblue" points="288.97,-133.75 278.58,-131.65 285.4,-139.77 288.97,-133.75"/>
</g>
<!-- Node13&#45;&gt;Node2 -->
<g id="edge21" class="edge">
<title>Node13&#45;&gt;Node2</title>
<path fill="none" stroke="midnightblue" d="M260.2,-112.08C257.09,-104.77 252.58,-94.18 248.71,-85.1"/>
<polygon fill="midnightblue" stroke="midnightblue" points="251.87,-83.58 244.73,-75.75 245.43,-86.32 251.87,-83.58"/>
</g>
<!-- Node13&#45;&gt;Node3 -->
<g id="edge17" class="edge">
<title>Node13&#45;&gt;Node3</title>
<path fill="none" stroke="midnightblue" d="M277.58,-112.37C307.26,-93.49 378.2,-48.38 414.61,-25.24"/>
<polygon fill="midnightblue" stroke="midnightblue" points="416.93,-27.91 423.49,-19.59 413.17,-22 416.93,-27.91"/>
</g>
<!-- Node13&#45;&gt;Node4 -->
<g id="edge18" class="edge">
<title>Node13&#45;&gt;Node4</title>
<path fill="none" stroke="midnightblue" d="M284.32,-112.37C329.9,-93.01 440.44,-46.06 493.55,-23.51"/>
<polygon fill="midnightblue" stroke="midnightblue" points="494.94,-26.72 502.77,-19.59 492.2,-20.28 494.94,-26.72"/>
</g>
<!-- Node13&#45;&gt;Node6 -->
<g id="edge19" class="edge">
<title>Node13&#45;&gt;Node6</title>
<path fill="none" stroke="midnightblue" d="M252.58,-112.38C241.56,-103.79 224.74,-89.91 212,-76 198.24,-60.98 184.86,-41.91 175.92,-28.32"/>
<polygon fill="midnightblue" stroke="midnightblue" points="178.85,-26.4 170.49,-19.9 172.97,-30.2 178.85,-26.4"/>
</g>
<!-- Node13&#45;&gt;Node8 -->
<g id="edge20" class="edge">
<title>Node13&#45;&gt;Node8</title>
<path fill="none" stroke="midnightblue" d="M269.93,-112.12C278.78,-99.15 296.32,-74.55 314,-56 324.28,-45.21 336.97,-34.37 347.35,-26.03"/>
<polygon fill="midnightblue" stroke="midnightblue" points="349.74,-28.6 355.43,-19.66 345.41,-23.1 349.74,-28.6"/>
</g>
<!-- Node14&#45;&gt;Node3 -->
<g id="edge26" class="edge">
<title>Node14&#45;&gt;Node3</title>
<path fill="none" stroke="midnightblue" d="M482.92,-56.08C474.83,-48.14 462.8,-36.34 453.09,-26.8"/>
<polygon fill="midnightblue" stroke="midnightblue" points="455.5,-24.26 445.91,-19.75 450.6,-29.25 455.5,-24.26"/>
</g>
<!-- Node14&#45;&gt;Node4 -->
<g id="edge25" class="edge">
<title>Node14&#45;&gt;Node4</title>
<path fill="none" stroke="midnightblue" d="M497.12,-56.08C501.41,-48.61 507.66,-37.72 512.94,-28.52"/>
<polygon fill="midnightblue" stroke="midnightblue" points="516.03,-30.17 517.98,-19.75 509.96,-26.68 516.03,-30.17"/>
</g>
<!-- Node15&#45;&gt;Node4 -->
<g id="edge28" class="edge">
<title>Node15&#45;&gt;Node4</title>
<path fill="none" stroke="midnightblue" d="M656.32,-168.25C654.2,-146.61 645.95,-89.92 616,-56 600.56,-38.52 576.81,-27.19 557.18,-20.27"/>
<polygon fill="midnightblue" stroke="midnightblue" points="558.23,-16.93 547.64,-17.13 556.05,-23.58 558.23,-16.93"/>
</g>
</g>
</svg>
