<?xml version="1.0" encoding="UTF-8" standalone="no"?>
<!DOCTYPE svg PUBLIC "-//W3C//DTD SVG 1.1//EN"
 "http://www.w3.org/Graphics/SVG/1.1/DTD/svg11.dtd">
<!-- Generated by graphviz version 3.0.0 (20220226.1711)
 -->
<!-- Title: Core/Src/front_layer.c Pages: 1 -->
<svg width="646pt" height="308pt"
 viewBox="0.00 0.00 645.50 308.00" xmlns="http://www.w3.org/2000/svg" xmlns:xlink="http://www.w3.org/1999/xlink">
<g id="graph0" class="graph" transform="scale(1 1) rotate(0) translate(4 304)">
<title>Core/Src/front_layer.c</title>
<polygon fill="white" stroke="transparent" points="-4,4 -4,-304 641.5,-304 641.5,4 -4,4"/>
<!-- Node1 -->
<g id="node1" class="node">
<title>Node1</title>
<g id="a_node1"><a xlink:title=" ">
<polygon fill="#bfbfbf" stroke="black" points="506.5,-280.5 506.5,-299.5 617.5,-299.5 617.5,-280.5 506.5,-280.5"/>
<text text-anchor="middle" x="562" y="-287.5" font-family="Helvetica,sans-Serif" font-size="10.00">Core/Src/front_layer.c</text>
</a>
</g>
</g>
<!-- Node2 -->
<g id="node2" class="node">
<title>Node2</title>
<g id="a_node2"><a xlink:href="front__layer_8h_source.html" target="_top" xlink:title=" ">
<polygon fill="white" stroke="black" points="458,-224.5 458,-243.5 528,-243.5 528,-224.5 458,-224.5"/>
<text text-anchor="middle" x="493" y="-231.5" font-family="Helvetica,sans-Serif" font-size="10.00">front_layer.h</text>
</a>
</g>
</g>
<!-- Node1&#45;&gt;Node2 -->
<g id="edge1" class="edge">
<title>Node1&#45;&gt;Node2</title>
<path fill="none" stroke="midnightblue" d="M550.91,-280.32C540.51,-272.18 524.74,-259.84 512.28,-250.09"/>
<polygon fill="midnightblue" stroke="midnightblue" points="514.32,-247.24 504.29,-243.83 510.01,-252.75 514.32,-247.24"/>
</g>
<!-- Node14 -->
<g id="node14" class="node">
<title>Node14</title>
<g id="a_node14"><a xlink:href="error_8h_source.html" target="_top" xlink:title=" ">
<polygon fill="white" stroke="black" points="514,-56.5 514,-75.5 558,-75.5 558,-56.5 514,-56.5"/>
<text text-anchor="middle" x="536" y="-63.5" font-family="Helvetica,sans-Serif" font-size="10.00">error.h</text>
</a>
</g>
</g>
<!-- Node1&#45;&gt;Node14 -->
<g id="edge27" class="edge">
<title>Node1&#45;&gt;Node14</title>
<path fill="none" stroke="midnightblue" d="M560.98,-280.3C557.16,-247.63 543.6,-131.87 538.22,-85.96"/>
<polygon fill="midnightblue" stroke="midnightblue" points="541.68,-85.41 537.04,-75.88 534.73,-86.22 541.68,-85.41"/>
</g>
<!-- Node15 -->
<g id="node15" class="node">
<title>Node15</title>
<g id="a_node15"><a xlink:title=" ">
<polygon fill="white" stroke="#bfbfbf" points="590.5,-224.5 590.5,-243.5 637.5,-243.5 637.5,-224.5 590.5,-224.5"/>
<text text-anchor="middle" x="614" y="-231.5" font-family="Helvetica,sans-Serif" font-size="10.00">usart.h</text>
</a>
</g>
</g>
<!-- Node1&#45;&gt;Node15 -->
<g id="edge26" class="edge">
<title>Node1&#45;&gt;Node15</title>
<path fill="none" stroke="midnightblue" d="M570.59,-280.08C578.16,-272.22 589.38,-260.57 598.51,-251.08"/>
<polygon fill="midnightblue" stroke="midnightblue" points="601.16,-253.38 605.57,-243.75 596.12,-248.53 601.16,-253.38"/>
</g>
<!-- Node3 -->
<g id="node3" class="node">
<title>Node3</title>
<g id="a_node3"><a xlink:title=" ">
<polygon fill="white" stroke="#bfbfbf" points="474.5,-0.5 474.5,-19.5 523.5,-19.5 523.5,-0.5 474.5,-0.5"/>
<text text-anchor="middle" x="499" y="-7.5" font-family="Helvetica,sans-Serif" font-size="10.00">stdint.h</text>
</a>
</g>
</g>
<!-- Node2&#45;&gt;Node3 -->
<g id="edge2" class="edge">
<title>Node2&#45;&gt;Node3</title>
<path fill="none" stroke="midnightblue" d="M493.24,-224.3C494.12,-191.63 497.25,-75.87 498.49,-29.96"/>
<polygon fill="midnightblue" stroke="midnightblue" points="501.99,-29.97 498.76,-19.88 494.99,-29.79 501.99,-29.97"/>
</g>
<!-- Node4 -->
<g id="node4" class="node">
<title>Node4</title>
<g id="a_node4"><a xlink:href="main_8h.html" target="_top" xlink:title=": Header for main.c file. This file contains the common defines of the application.">
<polygon fill="white" stroke="black" points="275,-168.5 275,-187.5 321,-187.5 321,-168.5 275,-168.5"/>
<text text-anchor="middle" x="298" y="-175.5" font-family="Helvetica,sans-Serif" font-size="10.00">main.h</text>
</a>
</g>
</g>
<!-- Node2&#45;&gt;Node4 -->
<g id="edge3" class="edge">
<title>Node2&#45;&gt;Node4</title>
<path fill="none" stroke="midnightblue" d="M462.1,-224.44C426.27,-214.52 367.46,-198.23 330.83,-188.09"/>
<polygon fill="midnightblue" stroke="midnightblue" points="331.69,-184.7 321.12,-185.4 329.82,-191.44 331.69,-184.7"/>
</g>
<!-- Node2&#45;&gt;Node14 -->
<g id="edge23" class="edge">
<title>Node2&#45;&gt;Node14</title>
<path fill="none" stroke="midnightblue" d="M495.31,-224.08C502.08,-197.95 521.96,-121.21 531.19,-85.58"/>
<polygon fill="midnightblue" stroke="midnightblue" points="534.66,-86.13 533.78,-75.57 527.88,-84.37 534.66,-86.13"/>
</g>
<!-- Node4&#45;&gt;Node3 -->
<g id="edge5" class="edge">
<title>Node4&#45;&gt;Node3</title>
<path fill="none" stroke="midnightblue" d="M309.67,-168.18C321.46,-159.21 340.16,-144.84 356,-132 401.83,-94.86 454.5,-49.61 481.31,-26.39"/>
<polygon fill="midnightblue" stroke="midnightblue" points="483.81,-28.85 489.07,-19.66 479.22,-23.57 483.81,-28.85"/>
</g>
<!-- Node5 -->
<g id="node5" class="node">
<title>Node5</title>
<g id="a_node5"><a xlink:title=" ">
<polygon fill="white" stroke="#bfbfbf" points="218,-112.5 218,-131.5 306,-131.5 306,-112.5 218,-112.5"/>
<text text-anchor="middle" x="262" y="-119.5" font-family="Helvetica,sans-Serif" font-size="10.00">stm32f4xx_hal.h</text>
</a>
</g>
</g>
<!-- Node4&#45;&gt;Node5 -->
<g id="edge4" class="edge">
<title>Node4&#45;&gt;Node5</title>
<path fill="none" stroke="midnightblue" d="M292.06,-168.08C287.02,-160.53 279.66,-149.49 273.49,-140.23"/>
<polygon fill="midnightblue" stroke="midnightblue" points="276.29,-138.13 267.83,-131.75 270.47,-142.01 276.29,-138.13"/>
</g>
<!-- Node6 -->
<g id="node6" class="node">
<title>Node6</title>
<g id="a_node6"><a xlink:title=" ">
<polygon fill="white" stroke="#bfbfbf" points="410,-0.5 410,-19.5 456,-19.5 456,-0.5 410,-0.5"/>
<text text-anchor="middle" x="433" y="-7.5" font-family="Helvetica,sans-Serif" font-size="10.00">stdio.h</text>
</a>
</g>
</g>
<!-- Node4&#45;&gt;Node6 -->
<g id="edge6" class="edge">
<title>Node4&#45;&gt;Node6</title>
<path fill="none" stroke="midnightblue" d="M305.26,-168.08C326.88,-141.49 391.09,-62.54 419.37,-27.76"/>
<polygon fill="midnightblue" stroke="midnightblue" points="422.44,-29.53 426.03,-19.57 417.01,-25.12 422.44,-29.53"/>
</g>
<!-- Node7 -->
<g id="node7" class="node">
<title>Node7</title>
<g id="a_node7"><a xlink:title=" ">
<polygon fill="white" stroke="#bfbfbf" points="66.5,-0.5 66.5,-19.5 115.5,-19.5 115.5,-0.5 66.5,-0.5"/>
<text text-anchor="middle" x="91" y="-7.5" font-family="Helvetica,sans-Serif" font-size="10.00">string.h</text>
</a>
</g>
</g>
<!-- Node4&#45;&gt;Node7 -->
<g id="edge7" class="edge">
<title>Node4&#45;&gt;Node7</title>
<path fill="none" stroke="midnightblue" d="M274.75,-174.18C231.4,-168.44 140.66,-154.07 119,-132 92.03,-104.52 89.06,-56.5 89.73,-29.97"/>
<polygon fill="midnightblue" stroke="midnightblue" points="93.24,-29.89 90.2,-19.74 86.25,-29.57 93.24,-29.89"/>
</g>
<!-- Node8 -->
<g id="node8" class="node">
<title>Node8</title>
<g id="a_node8"><a xlink:href="logic__layer_8h_source.html" target="_top" xlink:title=" ">
<polygon fill="white" stroke="black" points="128.5,-112.5 128.5,-131.5 199.5,-131.5 199.5,-112.5 128.5,-112.5"/>
<text text-anchor="middle" x="164" y="-119.5" font-family="Helvetica,sans-Serif" font-size="10.00">logic_layer.h</text>
</a>
</g>
</g>
<!-- Node4&#45;&gt;Node8 -->
<g id="edge8" class="edge">
<title>Node4&#45;&gt;Node8</title>
<path fill="none" stroke="midnightblue" d="M276.77,-168.44C254.62,-159.52 219.68,-145.44 194.56,-135.32"/>
<polygon fill="midnightblue" stroke="midnightblue" points="195.72,-132.01 185.13,-131.52 193.1,-138.5 195.72,-132.01"/>
</g>
<!-- Node9 -->
<g id="node9" class="node">
<title>Node9</title>
<g id="a_node9"><a xlink:title=" ">
<polygon fill="white" stroke="#bfbfbf" points="0,-0.5 0,-19.5 48,-19.5 48,-0.5 0,-0.5"/>
<text text-anchor="middle" x="24" y="-7.5" font-family="Helvetica,sans-Serif" font-size="10.00">stdlib.h</text>
</a>
</g>
</g>
<!-- Node4&#45;&gt;Node9 -->
<g id="edge21" class="edge">
<title>Node4&#45;&gt;Node9</title>
<path fill="none" stroke="midnightblue" d="M274.92,-177.14C235.82,-176.26 155.58,-169.61 102,-132 64.96,-106 41.3,-56.26 30.62,-29.36"/>
<polygon fill="midnightblue" stroke="midnightblue" points="33.76,-27.77 26.94,-19.66 27.21,-30.25 33.76,-27.77"/>
</g>
<!-- Node13 -->
<g id="node13" class="node">
<title>Node13</title>
<g id="a_node13"><a xlink:title=" ">
<polygon fill="white" stroke="#bfbfbf" points="270,-0.5 270,-19.5 392,-19.5 392,-0.5 270,-0.5"/>
<text text-anchor="middle" x="331" y="-7.5" font-family="Helvetica,sans-Serif" font-size="10.00">stm32_ub_vga_screen.h</text>
</a>
</g>
</g>
<!-- Node4&#45;&gt;Node13 -->
<g id="edge22" class="edge">
<title>Node4&#45;&gt;Node13</title>
<path fill="none" stroke="midnightblue" d="M302,-168.23C305.92,-159.3 311.74,-144.96 315,-132 323.93,-96.5 328.09,-53.82 329.86,-29.81"/>
<polygon fill="midnightblue" stroke="midnightblue" points="333.36,-29.85 330.54,-19.64 326.38,-29.38 333.36,-29.85"/>
</g>
<!-- Node8&#45;&gt;Node3 -->
<g id="edge10" class="edge">
<title>Node8&#45;&gt;Node3</title>
<path fill="none" stroke="midnightblue" d="M193.52,-112.49C223.66,-103.71 271.76,-89.43 313,-76 366.81,-58.48 428.76,-36.46 465.85,-23.07"/>
<polygon fill="midnightblue" stroke="midnightblue" points="467.41,-26.23 475.62,-19.53 465.03,-19.64 467.41,-26.23"/>
</g>
<!-- Node8&#45;&gt;Node6 -->
<g id="edge9" class="edge">
<title>Node8&#45;&gt;Node6</title>
<path fill="none" stroke="midnightblue" d="M185.11,-112.37C232.45,-93.01 347.25,-46.06 402.41,-23.51"/>
<polygon fill="midnightblue" stroke="midnightblue" points="404.06,-26.62 411.99,-19.59 401.41,-20.14 404.06,-26.62"/>
</g>
<!-- Node8&#45;&gt;Node7 -->
<g id="edge11" class="edge">
<title>Node8&#45;&gt;Node7</title>
<path fill="none" stroke="midnightblue" d="M158.27,-112.37C146.22,-94.22 118.08,-51.8 102.28,-27.99"/>
<polygon fill="midnightblue" stroke="midnightblue" points="105.15,-25.99 96.7,-19.59 99.31,-29.86 105.15,-25.99"/>
</g>
<!-- Node8&#45;&gt;Node9 -->
<g id="edge12" class="edge">
<title>Node8&#45;&gt;Node9</title>
<path fill="none" stroke="midnightblue" d="M153.01,-112.37C129.19,-93.65 72.56,-49.15 42.88,-25.83"/>
<polygon fill="midnightblue" stroke="midnightblue" points="44.96,-23.02 34.93,-19.59 40.64,-28.52 44.96,-23.02"/>
</g>
<!-- Node10 -->
<g id="node10" class="node">
<title>Node10</title>
<g id="a_node10"><a xlink:href="_a_p_i_8h_source.html" target="_top" xlink:title=" ">
<polygon fill="white" stroke="black" points="200.5,-56.5 200.5,-75.5 241.5,-75.5 241.5,-56.5 200.5,-56.5"/>
<text text-anchor="middle" x="221" y="-63.5" font-family="Helvetica,sans-Serif" font-size="10.00">API.h</text>
</a>
</g>
</g>
<!-- Node8&#45;&gt;Node10 -->
<g id="edge13" class="edge">
<title>Node8&#45;&gt;Node10</title>
<path fill="none" stroke="midnightblue" d="M173.16,-112.32C181.5,-104.42 194.03,-92.55 204.18,-82.94"/>
<polygon fill="midnightblue" stroke="midnightblue" points="206.82,-85.25 211.68,-75.83 202.01,-80.17 206.82,-85.25"/>
</g>
<!-- Node10&#45;&gt;Node3 -->
<g id="edge15" class="edge">
<title>Node10&#45;&gt;Node3</title>
<path fill="none" stroke="midnightblue" d="M241.67,-61.74C282.34,-55.2 375.75,-39.61 464.24,-20.03"/>
<polygon fill="midnightblue" stroke="midnightblue" points="465.18,-23.4 474.17,-17.81 463.65,-16.57 465.18,-23.4"/>
</g>
<!-- Node10&#45;&gt;Node6 -->
<g id="edge14" class="edge">
<title>Node10&#45;&gt;Node6</title>
<path fill="none" stroke="midnightblue" d="M241.57,-60.07C273.42,-52.38 336.81,-36.9 400.19,-20.16"/>
<polygon fill="midnightblue" stroke="midnightblue" points="401.18,-23.52 409.95,-17.57 399.39,-16.75 401.18,-23.52"/>
</g>
<!-- Node10&#45;&gt;Node7 -->
<g id="edge17" class="edge">
<title>Node10&#45;&gt;Node7</title>
<path fill="none" stroke="midnightblue" d="M200.4,-56.44C179.01,-47.56 145.32,-33.56 120.98,-23.45"/>
<polygon fill="midnightblue" stroke="midnightblue" points="122.08,-20.12 111.5,-19.52 119.39,-26.58 122.08,-20.12"/>
</g>
<!-- Node10&#45;&gt;Node9 -->
<g id="edge19" class="edge">
<title>Node10&#45;&gt;Node9</title>
<path fill="none" stroke="midnightblue" d="M200.29,-59.32C166.41,-50.04 98.83,-31.51 57.89,-20.29"/>
<polygon fill="midnightblue" stroke="midnightblue" points="58.66,-16.87 48.09,-17.6 56.81,-23.62 58.66,-16.87"/>
</g>
<!-- Node11 -->
<g id="node11" class="node">
<title>Node11</title>
<g id="a_node11"><a xlink:title=" ">
<polygon fill="white" stroke="#bfbfbf" points="204.5,-0.5 204.5,-19.5 251.5,-19.5 251.5,-0.5 204.5,-0.5"/>
<text text-anchor="middle" x="228" y="-7.5" font-family="Helvetica,sans-Serif" font-size="10.00">math.h</text>
</a>
</g>
</g>
<!-- Node10&#45;&gt;Node11 -->
<g id="edge16" class="edge">
<title>Node10&#45;&gt;Node11</title>
<path fill="none" stroke="midnightblue" d="M222.16,-56.08C223.08,-48.93 224.42,-38.64 225.58,-29.69"/>
<polygon fill="midnightblue" stroke="midnightblue" points="229.05,-30.12 226.87,-19.75 222.11,-29.22 229.05,-30.12"/>
</g>
<!-- Node12 -->
<g id="node12" class="node">
<title>Node12</title>
<g id="a_node12"><a xlink:title=" ">
<polygon fill="white" stroke="#bfbfbf" points="134,-0.5 134,-19.5 186,-19.5 186,-0.5 134,-0.5"/>
<text text-anchor="middle" x="160" y="-7.5" font-family="Helvetica,sans-Serif" font-size="10.00">stdarg.h</text>
</a>
</g>
</g>
<!-- Node10&#45;&gt;Node12 -->
<g id="edge18" class="edge">
<title>Node10&#45;&gt;Node12</title>
<path fill="none" stroke="midnightblue" d="M211.2,-56.32C202.18,-48.34 188.59,-36.31 177.68,-26.65"/>
<polygon fill="midnightblue" stroke="midnightblue" points="179.79,-23.84 169.98,-19.83 175.15,-29.08 179.79,-23.84"/>
</g>
<!-- Node10&#45;&gt;Node13 -->
<g id="edge20" class="edge">
<title>Node10&#45;&gt;Node13</title>
<path fill="none" stroke="midnightblue" d="M238.67,-56.32C256.39,-47.62 283.9,-34.12 304.29,-24.11"/>
<polygon fill="midnightblue" stroke="midnightblue" points="305.94,-27.2 313.37,-19.65 302.85,-20.92 305.94,-27.2"/>
</g>
<!-- Node14&#45;&gt;Node3 -->
<g id="edge24" class="edge">
<title>Node14&#45;&gt;Node3</title>
<path fill="none" stroke="midnightblue" d="M529.89,-56.08C524.72,-48.53 517.15,-37.49 510.81,-28.23"/>
<polygon fill="midnightblue" stroke="midnightblue" points="513.54,-26.02 505,-19.75 507.76,-29.98 513.54,-26.02"/>
</g>
<!-- Node14&#45;&gt;Node6 -->
<g id="edge25" class="edge">
<title>Node14&#45;&gt;Node6</title>
<path fill="none" stroke="midnightblue" d="M519.45,-56.32C503.01,-47.7 477.57,-34.36 458.53,-24.39"/>
<polygon fill="midnightblue" stroke="midnightblue" points="459.99,-21.2 449.51,-19.65 456.74,-27.4 459.99,-21.2"/>
</g>
</g>
</svg>
