<?xml version="1.0" encoding="UTF-8" standalone="no"?>
<!DOCTYPE svg PUBLIC "-//W3C//DTD SVG 1.1//EN"
 "http://www.w3.org/Graphics/SVG/1.1/DTD/svg11.dtd">
<!-- Generated by graphviz version 3.0.0 (20220226.1711)
 -->
<!-- Title: Error_Handler Pages: 1 -->
<svg width="301pt" height="28pt"
 viewBox="0.00 0.00 301.00 28.00" xmlns="http://www.w3.org/2000/svg" xmlns:xlink="http://www.w3.org/1999/xlink">
<g id="graph0" class="graph" transform="scale(1 1) rotate(0) translate(4 24)">
<title>Error_Handler</title>
<polygon fill="white" stroke="transparent" points="-4,4 -4,-24 297,-24 297,4 -4,4"/>
<!-- Node1 -->
<g id="node1" class="node">
<title>Node1</title>
<g id="a_node1"><a xlink:title="This function is executed in case of error occurrence.">
<polygon fill="#bfbfbf" stroke="black" points="217,-0.5 217,-19.5 293,-19.5 293,-0.5 217,-0.5"/>
<text text-anchor="middle" x="255" y="-7.5" font-family="Helvetica,sans-Serif" font-size="10.00">Error_Handler</text>
</a>
</g>
</g>
<!-- Node2 -->
<g id="node2" class="node">
<title>Node2</title>
<g id="a_node2"><a xlink:href="main_8c.html#a70af21c671abfcc773614a9a4f63d920" target="_top" xlink:title="System Clock Configuration.">
<polygon fill="white" stroke="black" points="74,-0.5 74,-19.5 181,-19.5 181,-0.5 74,-0.5"/>
<text text-anchor="middle" x="127.5" y="-7.5" font-family="Helvetica,sans-Serif" font-size="10.00">SystemClock_Config</text>
</a>
</g>
</g>
<!-- Node1&#45;&gt;Node2 -->
<g id="edge1" class="edge">
<title>Node1&#45;&gt;Node2</title>
<path fill="none" stroke="midnightblue" d="M206.48,-10C198.23,-10 189.61,-10 181.23,-10"/>
<polygon fill="midnightblue" stroke="midnightblue" points="206.69,-13.5 216.69,-10 206.69,-6.5 206.69,-13.5"/>
</g>
<!-- Node3 -->
<g id="node3" class="node">
<title>Node3</title>
<g id="a_node3"><a xlink:href="main_8c.html#a840291bc02cba5474a4cb46a9b9566fe" target="_top" xlink:title="The application entry point.">
<polygon fill="white" stroke="black" points="0,-0.5 0,-19.5 38,-19.5 38,-0.5 0,-0.5"/>
<text text-anchor="middle" x="19" y="-7.5" font-family="Helvetica,sans-Serif" font-size="10.00">main</text>
</a>
</g>
</g>
<!-- Node2&#45;&gt;Node3 -->
<g id="edge2" class="edge">
<title>Node2&#45;&gt;Node3</title>
<path fill="none" stroke="midnightblue" d="M63.73,-10C54.47,-10 45.61,-10 38.32,-10"/>
<polygon fill="midnightblue" stroke="midnightblue" points="63.87,-13.5 73.87,-10 63.87,-6.5 63.87,-13.5"/>
</g>
</g>
</svg>
