<?xml version="1.0" encoding="UTF-8" standalone="no"?>
<!DOCTYPE svg PUBLIC "-//W3C//DTD SVG 1.1//EN"
 "http://www.w3.org/Graphics/SVG/1.1/DTD/svg11.dtd">
<!-- Generated by graphviz version 3.0.0 (20220226.1711)
 -->
<!-- Title: Core/Src/main.c Pages: 1 -->
<svg width="729pt" height="308pt"
 viewBox="0.00 0.00 729.00 308.00" xmlns="http://www.w3.org/2000/svg" xmlns:xlink="http://www.w3.org/1999/xlink">
<g id="graph0" class="graph" transform="scale(1 1) rotate(0) translate(4 304)">
<title>Core/Src/main.c</title>
<polygon fill="white" stroke="transparent" points="-4,4 -4,-304 725,-304 725,4 -4,4"/>
<!-- Node1 -->
<g id="node1" class="node">
<title>Node1</title>
<g id="a_node1"><a xlink:title=": Main program body">
<polygon fill="#bfbfbf" stroke="black" points="340.5,-280.5 340.5,-299.5 427.5,-299.5 427.5,-280.5 340.5,-280.5"/>
<text text-anchor="middle" x="384" y="-287.5" font-family="Helvetica,sans-Serif" font-size="10.00">Core/Src/main.c</text>
</a>
</g>
</g>
<!-- Node2 -->
<g id="node2" class="node">
<title>Node2</title>
<g id="a_node2"><a xlink:href="main_8h.html" target="_top" xlink:title=": Header for main.c file. This file contains the common defines of the application.">
<polygon fill="white" stroke="black" points="307,-168.5 307,-187.5 353,-187.5 353,-168.5 307,-168.5"/>
<text text-anchor="middle" x="330" y="-175.5" font-family="Helvetica,sans-Serif" font-size="10.00">main.h</text>
</a>
</g>
</g>
<!-- Node1&#45;&gt;Node2 -->
<g id="edge1" class="edge">
<title>Node1&#45;&gt;Node2</title>
<path fill="none" stroke="midnightblue" d="M364.7,-280.48C350.57,-273.08 332.44,-260.89 324,-244 316.72,-229.44 319.5,-210.76 323.34,-197.17"/>
<polygon fill="midnightblue" stroke="midnightblue" points="326.71,-198.12 326.47,-187.53 320.05,-195.96 326.71,-198.12"/>
</g>
<!-- Node13 -->
<g id="node13" class="node">
<title>Node13</title>
<g id="a_node13"><a xlink:href="dma_8h_source.html" target="_top" xlink:title=" ">
<polygon fill="white" stroke="black" points="333,-224.5 333,-243.5 377,-243.5 377,-224.5 333,-224.5"/>
<text text-anchor="middle" x="355" y="-231.5" font-family="Helvetica,sans-Serif" font-size="10.00">dma.h</text>
</a>
</g>
</g>
<!-- Node1&#45;&gt;Node13 -->
<g id="edge21" class="edge">
<title>Node1&#45;&gt;Node13</title>
<path fill="none" stroke="midnightblue" d="M379.21,-280.08C375.24,-272.69 369.47,-261.95 364.57,-252.81"/>
<polygon fill="midnightblue" stroke="midnightblue" points="367.51,-250.91 359.7,-243.75 361.35,-254.22 367.51,-250.91"/>
</g>
<!-- Node14 -->
<g id="node14" class="node">
<title>Node14</title>
<g id="a_node14"><a xlink:title=" ">
<polygon fill="white" stroke="#bfbfbf" points="395,-224.5 395,-243.5 433,-243.5 433,-224.5 395,-224.5"/>
<text text-anchor="middle" x="414" y="-231.5" font-family="Helvetica,sans-Serif" font-size="10.00">tim.h</text>
</a>
</g>
</g>
<!-- Node1&#45;&gt;Node14 -->
<g id="edge23" class="edge">
<title>Node1&#45;&gt;Node14</title>
<path fill="none" stroke="midnightblue" d="M388.95,-280.08C393.1,-272.61 399.15,-261.72 404.27,-252.52"/>
<polygon fill="midnightblue" stroke="midnightblue" points="407.34,-254.19 409.14,-243.75 401.22,-250.79 407.34,-254.19"/>
</g>
<!-- Node15 -->
<g id="node15" class="node">
<title>Node15</title>
<g id="a_node15"><a xlink:title=" ">
<polygon fill="white" stroke="#bfbfbf" points="451.5,-224.5 451.5,-243.5 498.5,-243.5 498.5,-224.5 451.5,-224.5"/>
<text text-anchor="middle" x="475" y="-231.5" font-family="Helvetica,sans-Serif" font-size="10.00">usart.h</text>
</a>
</g>
</g>
<!-- Node1&#45;&gt;Node15 -->
<g id="edge24" class="edge">
<title>Node1&#45;&gt;Node15</title>
<path fill="none" stroke="midnightblue" d="M398.62,-280.32C412.95,-271.82 435.01,-258.73 451.75,-248.8"/>
<polygon fill="midnightblue" stroke="midnightblue" points="453.6,-251.77 460.42,-243.65 450.03,-245.75 453.6,-251.77"/>
</g>
<!-- Node16 -->
<g id="node16" class="node">
<title>Node16</title>
<g id="a_node16"><a xlink:title=" ">
<polygon fill="white" stroke="#bfbfbf" points="516.5,-224.5 516.5,-243.5 559.5,-243.5 559.5,-224.5 516.5,-224.5"/>
<text text-anchor="middle" x="538" y="-231.5" font-family="Helvetica,sans-Serif" font-size="10.00">gpio.h</text>
</a>
</g>
</g>
<!-- Node1&#45;&gt;Node16 -->
<g id="edge25" class="edge">
<title>Node1&#45;&gt;Node16</title>
<path fill="none" stroke="midnightblue" d="M408.4,-280.44C434.96,-271.13 477.49,-256.22 506.54,-246.03"/>
<polygon fill="midnightblue" stroke="midnightblue" points="507.92,-249.26 516.2,-242.64 505.61,-242.65 507.92,-249.26"/>
</g>
<!-- Node17 -->
<g id="node17" class="node">
<title>Node17</title>
<g id="a_node17"><a xlink:href="front__layer_8h_source.html" target="_top" xlink:title=" ">
<polygon fill="white" stroke="black" points="207,-224.5 207,-243.5 277,-243.5 277,-224.5 207,-224.5"/>
<text text-anchor="middle" x="242" y="-231.5" font-family="Helvetica,sans-Serif" font-size="10.00">front_layer.h</text>
</a>
</g>
</g>
<!-- Node1&#45;&gt;Node17 -->
<g id="edge26" class="edge">
<title>Node1&#45;&gt;Node17</title>
<path fill="none" stroke="midnightblue" d="M361.5,-280.44C337.92,-271.48 300.68,-257.31 274.04,-247.18"/>
<polygon fill="midnightblue" stroke="midnightblue" points="274.99,-243.8 264.4,-243.52 272.5,-250.34 274.99,-243.8"/>
</g>
<!-- Node3 -->
<g id="node3" class="node">
<title>Node3</title>
<g id="a_node3"><a xlink:title=" ">
<polygon fill="white" stroke="#bfbfbf" points="0,-112.5 0,-131.5 88,-131.5 88,-112.5 0,-112.5"/>
<text text-anchor="middle" x="44" y="-119.5" font-family="Helvetica,sans-Serif" font-size="10.00">stm32f4xx_hal.h</text>
</a>
</g>
</g>
<!-- Node2&#45;&gt;Node3 -->
<g id="edge2" class="edge">
<title>Node2&#45;&gt;Node3</title>
<path fill="none" stroke="midnightblue" d="M306.6,-172.58C261.35,-164.04 160.84,-145.06 98.12,-133.22"/>
<polygon fill="midnightblue" stroke="midnightblue" points="98.49,-129.73 88.02,-131.31 97.19,-136.61 98.49,-129.73"/>
</g>
<!-- Node4 -->
<g id="node4" class="node">
<title>Node4</title>
<g id="a_node4"><a xlink:title=" ">
<polygon fill="white" stroke="#bfbfbf" points="167.5,-0.5 167.5,-19.5 216.5,-19.5 216.5,-0.5 167.5,-0.5"/>
<text text-anchor="middle" x="192" y="-7.5" font-family="Helvetica,sans-Serif" font-size="10.00">stdint.h</text>
</a>
</g>
</g>
<!-- Node2&#45;&gt;Node4 -->
<g id="edge3" class="edge">
<title>Node2&#45;&gt;Node4</title>
<path fill="none" stroke="midnightblue" d="M309.19,-168.48C277.97,-154.43 220.01,-123.2 195,-76 187.48,-61.81 187.39,-43.33 188.79,-29.7"/>
<polygon fill="midnightblue" stroke="midnightblue" points="192.29,-29.99 190.19,-19.6 185.35,-29.02 192.29,-29.99"/>
</g>
<!-- Node5 -->
<g id="node5" class="node">
<title>Node5</title>
<g id="a_node5"><a xlink:title=" ">
<polygon fill="white" stroke="#bfbfbf" points="266,-0.5 266,-19.5 312,-19.5 312,-0.5 266,-0.5"/>
<text text-anchor="middle" x="289" y="-7.5" font-family="Helvetica,sans-Serif" font-size="10.00">stdio.h</text>
</a>
</g>
</g>
<!-- Node2&#45;&gt;Node5 -->
<g id="edge4" class="edge">
<title>Node2&#45;&gt;Node5</title>
<path fill="none" stroke="midnightblue" d="M327.8,-168.08C321.34,-141.95 302.39,-65.21 293.59,-29.58"/>
<polygon fill="midnightblue" stroke="midnightblue" points="296.91,-28.44 291.12,-19.57 290.12,-30.12 296.91,-28.44"/>
</g>
<!-- Node6 -->
<g id="node6" class="node">
<title>Node6</title>
<g id="a_node6"><a xlink:title=" ">
<polygon fill="white" stroke="#bfbfbf" points="330.5,-0.5 330.5,-19.5 379.5,-19.5 379.5,-0.5 330.5,-0.5"/>
<text text-anchor="middle" x="355" y="-7.5" font-family="Helvetica,sans-Serif" font-size="10.00">string.h</text>
</a>
</g>
</g>
<!-- Node2&#45;&gt;Node6 -->
<g id="edge5" class="edge">
<title>Node2&#45;&gt;Node6</title>
<path fill="none" stroke="midnightblue" d="M331.34,-168.08C335.28,-141.95 346.84,-65.21 352.2,-29.58"/>
<polygon fill="midnightblue" stroke="midnightblue" points="355.68,-29.98 353.71,-19.57 348.76,-28.94 355.68,-29.98"/>
</g>
<!-- Node7 -->
<g id="node7" class="node">
<title>Node7</title>
<g id="a_node7"><a xlink:href="logic__layer_8h_source.html" target="_top" xlink:title=" ">
<polygon fill="white" stroke="black" points="396.5,-112.5 396.5,-131.5 467.5,-131.5 467.5,-112.5 396.5,-112.5"/>
<text text-anchor="middle" x="432" y="-119.5" font-family="Helvetica,sans-Serif" font-size="10.00">logic_layer.h</text>
</a>
</g>
</g>
<!-- Node2&#45;&gt;Node7 -->
<g id="edge6" class="edge">
<title>Node2&#45;&gt;Node7</title>
<path fill="none" stroke="midnightblue" d="M346.39,-168.32C362.67,-159.7 387.87,-146.36 406.72,-136.39"/>
<polygon fill="midnightblue" stroke="midnightblue" points="408.45,-139.43 415.65,-131.65 405.18,-133.24 408.45,-139.43"/>
</g>
<!-- Node8 -->
<g id="node8" class="node">
<title>Node8</title>
<g id="a_node8"><a xlink:title=" ">
<polygon fill="white" stroke="#bfbfbf" points="533,-0.5 533,-19.5 581,-19.5 581,-0.5 533,-0.5"/>
<text text-anchor="middle" x="557" y="-7.5" font-family="Helvetica,sans-Serif" font-size="10.00">stdlib.h</text>
</a>
</g>
</g>
<!-- Node2&#45;&gt;Node8 -->
<g id="edge19" class="edge">
<title>Node2&#45;&gt;Node8</title>
<path fill="none" stroke="midnightblue" d="M353.07,-174.8C384,-170.85 439.37,-160.12 477,-132 513.51,-104.72 538.38,-55.54 549.82,-29.06"/>
<polygon fill="midnightblue" stroke="midnightblue" points="553.06,-30.39 553.66,-19.81 546.59,-27.7 553.06,-30.39"/>
</g>
<!-- Node12 -->
<g id="node12" class="node">
<title>Node12</title>
<g id="a_node12"><a xlink:title=" ">
<polygon fill="white" stroke="#bfbfbf" points="599,-0.5 599,-19.5 721,-19.5 721,-0.5 599,-0.5"/>
<text text-anchor="middle" x="660" y="-7.5" font-family="Helvetica,sans-Serif" font-size="10.00">stm32_ub_vga_screen.h</text>
</a>
</g>
</g>
<!-- Node2&#45;&gt;Node12 -->
<g id="edge20" class="edge">
<title>Node2&#45;&gt;Node12</title>
<path fill="none" stroke="midnightblue" d="M353.13,-173.86C386.97,-168.63 451.34,-156.23 501,-132 558.92,-103.74 616.51,-52.77 643.75,-26.94"/>
<polygon fill="midnightblue" stroke="midnightblue" points="646.41,-29.23 651.19,-19.78 641.56,-24.19 646.41,-29.23"/>
</g>
<!-- Node7&#45;&gt;Node4 -->
<g id="edge8" class="edge">
<title>Node7&#45;&gt;Node4</title>
<path fill="none" stroke="midnightblue" d="M396.13,-118.15C340.64,-113.03 237.59,-100.45 211,-76 198.17,-64.2 193.83,-44.28 192.45,-29.59"/>
<polygon fill="midnightblue" stroke="midnightblue" points="195.94,-29.38 191.87,-19.6 188.95,-29.79 195.94,-29.38"/>
</g>
<!-- Node7&#45;&gt;Node5 -->
<g id="edge7" class="edge">
<title>Node7&#45;&gt;Node5</title>
<path fill="none" stroke="midnightblue" d="M420.78,-112.37C396.45,-93.65 338.6,-49.15 308.28,-25.83"/>
<polygon fill="midnightblue" stroke="midnightblue" points="310.23,-22.91 300.17,-19.59 305.96,-28.46 310.23,-22.91"/>
</g>
<!-- Node7&#45;&gt;Node6 -->
<g id="edge9" class="edge">
<title>Node7&#45;&gt;Node6</title>
<path fill="none" stroke="midnightblue" d="M425.96,-112.37C413.25,-94.22 383.56,-51.8 366.89,-27.99"/>
<polygon fill="midnightblue" stroke="midnightblue" points="369.62,-25.78 361.01,-19.59 363.88,-29.79 369.62,-25.78"/>
</g>
<!-- Node7&#45;&gt;Node8 -->
<g id="edge10" class="edge">
<title>Node7&#45;&gt;Node8</title>
<path fill="none" stroke="midnightblue" d="M442.24,-112.46C452.97,-103.48 470.29,-88.88 485,-76 504.06,-59.31 525.59,-39.78 540.1,-26.52"/>
<polygon fill="midnightblue" stroke="midnightblue" points="542.75,-28.84 547.76,-19.51 538.02,-23.68 542.75,-28.84"/>
</g>
<!-- Node9 -->
<g id="node9" class="node">
<title>Node9</title>
<g id="a_node9"><a xlink:href="_a_p_i_8h_source.html" target="_top" xlink:title=" ">
<polygon fill="white" stroke="black" points="434.5,-56.5 434.5,-75.5 475.5,-75.5 475.5,-56.5 434.5,-56.5"/>
<text text-anchor="middle" x="455" y="-63.5" font-family="Helvetica,sans-Serif" font-size="10.00">API.h</text>
</a>
</g>
</g>
<!-- Node7&#45;&gt;Node9 -->
<g id="edge11" class="edge">
<title>Node7&#45;&gt;Node9</title>
<path fill="none" stroke="midnightblue" d="M435.8,-112.08C438.91,-104.77 443.42,-94.18 447.29,-85.1"/>
<polygon fill="midnightblue" stroke="midnightblue" points="450.57,-86.32 451.27,-75.75 444.13,-83.58 450.57,-86.32"/>
</g>
<!-- Node9&#45;&gt;Node4 -->
<g id="edge13" class="edge">
<title>Node9&#45;&gt;Node4</title>
<path fill="none" stroke="midnightblue" d="M434.36,-60.76C389.43,-51.54 282.32,-29.54 226.76,-18.14"/>
<polygon fill="midnightblue" stroke="midnightblue" points="227.19,-14.65 216.69,-16.07 225.78,-21.51 227.19,-14.65"/>
</g>
<!-- Node9&#45;&gt;Node5 -->
<g id="edge12" class="edge">
<title>Node9&#45;&gt;Node5</title>
<path fill="none" stroke="midnightblue" d="M434.31,-58.27C406.11,-49.1 355.3,-32.57 321.86,-21.69"/>
<polygon fill="midnightblue" stroke="midnightblue" points="322.68,-18.27 312.09,-18.51 320.51,-24.93 322.68,-18.27"/>
</g>
<!-- Node9&#45;&gt;Node6 -->
<g id="edge15" class="edge">
<title>Node9&#45;&gt;Node6</title>
<path fill="none" stroke="midnightblue" d="M438.93,-56.32C423.04,-47.74 398.49,-34.49 380.04,-24.52"/>
<polygon fill="midnightblue" stroke="midnightblue" points="381.49,-21.33 371.03,-19.65 378.16,-27.49 381.49,-21.33"/>
</g>
<!-- Node9&#45;&gt;Node8 -->
<g id="edge17" class="edge">
<title>Node9&#45;&gt;Node8</title>
<path fill="none" stroke="midnightblue" d="M471.39,-56.32C487.67,-47.7 512.87,-34.36 531.72,-24.39"/>
<polygon fill="midnightblue" stroke="midnightblue" points="533.45,-27.43 540.65,-19.65 530.18,-21.24 533.45,-27.43"/>
</g>
<!-- Node10 -->
<g id="node10" class="node">
<title>Node10</title>
<g id="a_node10"><a xlink:title=" ">
<polygon fill="white" stroke="#bfbfbf" points="397.5,-0.5 397.5,-19.5 444.5,-19.5 444.5,-0.5 397.5,-0.5"/>
<text text-anchor="middle" x="421" y="-7.5" font-family="Helvetica,sans-Serif" font-size="10.00">math.h</text>
</a>
</g>
</g>
<!-- Node9&#45;&gt;Node10 -->
<g id="edge14" class="edge">
<title>Node9&#45;&gt;Node10</title>
<path fill="none" stroke="midnightblue" d="M449.39,-56.08C444.63,-48.53 437.68,-37.49 431.85,-28.23"/>
<polygon fill="midnightblue" stroke="midnightblue" points="434.8,-26.35 426.51,-19.75 428.88,-30.08 434.8,-26.35"/>
</g>
<!-- Node11 -->
<g id="node11" class="node">
<title>Node11</title>
<g id="a_node11"><a xlink:title=" ">
<polygon fill="white" stroke="#bfbfbf" points="463,-0.5 463,-19.5 515,-19.5 515,-0.5 463,-0.5"/>
<text text-anchor="middle" x="489" y="-7.5" font-family="Helvetica,sans-Serif" font-size="10.00">stdarg.h</text>
</a>
</g>
</g>
<!-- Node9&#45;&gt;Node11 -->
<g id="edge16" class="edge">
<title>Node9&#45;&gt;Node11</title>
<path fill="none" stroke="midnightblue" d="M460.61,-56.08C465.37,-48.53 472.32,-37.49 478.15,-28.23"/>
<polygon fill="midnightblue" stroke="midnightblue" points="481.12,-30.08 483.49,-19.75 475.2,-26.35 481.12,-30.08"/>
</g>
<!-- Node9&#45;&gt;Node12 -->
<g id="edge18" class="edge">
<title>Node9&#45;&gt;Node12</title>
<path fill="none" stroke="midnightblue" d="M475.78,-59.53C508.93,-50.79 574.43,-33.54 617.72,-22.14"/>
<polygon fill="midnightblue" stroke="midnightblue" points="618.63,-25.52 627.41,-19.59 616.85,-18.75 618.63,-25.52"/>
</g>
<!-- Node13&#45;&gt;Node2 -->
<g id="edge22" class="edge">
<title>Node13&#45;&gt;Node2</title>
<path fill="none" stroke="midnightblue" d="M350.87,-224.08C347.49,-216.77 342.58,-206.18 338.38,-197.1"/>
<polygon fill="midnightblue" stroke="midnightblue" points="341.43,-195.36 334.05,-187.75 335.08,-198.3 341.43,-195.36"/>
</g>
<!-- Node17&#45;&gt;Node2 -->
<g id="edge28" class="edge">
<title>Node17&#45;&gt;Node2</title>
<path fill="none" stroke="midnightblue" d="M256.14,-224.32C269.87,-215.9 290.94,-202.97 307.06,-193.07"/>
<polygon fill="midnightblue" stroke="midnightblue" points="309.2,-195.87 315.9,-187.65 305.54,-189.9 309.2,-195.87"/>
</g>
<!-- Node17&#45;&gt;Node4 -->
<g id="edge27" class="edge">
<title>Node17&#45;&gt;Node4</title>
<path fill="none" stroke="midnightblue" d="M238.58,-224.33C229.51,-200.88 204.88,-134.06 195,-76 192.39,-60.67 191.72,-43.03 191.66,-30"/>
<polygon fill="midnightblue" stroke="midnightblue" points="195.16,-29.93 191.73,-19.9 188.16,-29.88 195.16,-29.93"/>
</g>
<!-- Node18 -->
<g id="node18" class="node">
<title>Node18</title>
<g id="a_node18"><a xlink:href="error_8h_source.html" target="_top" xlink:title=" ">
<polygon fill="white" stroke="black" points="220,-56.5 220,-75.5 264,-75.5 264,-56.5 220,-56.5"/>
<text text-anchor="middle" x="242" y="-63.5" font-family="Helvetica,sans-Serif" font-size="10.00">error.h</text>
</a>
</g>
</g>
<!-- Node17&#45;&gt;Node18 -->
<g id="edge29" class="edge">
<title>Node17&#45;&gt;Node18</title>
<path fill="none" stroke="midnightblue" d="M242,-224.08C242,-197.95 242,-121.21 242,-85.58"/>
<polygon fill="midnightblue" stroke="midnightblue" points="245.5,-85.57 242,-75.57 238.5,-85.57 245.5,-85.57"/>
</g>
<!-- Node18&#45;&gt;Node4 -->
<g id="edge30" class="edge">
<title>Node18&#45;&gt;Node4</title>
<path fill="none" stroke="midnightblue" d="M233.74,-56.08C226.54,-48.3 215.89,-36.8 207.15,-27.37"/>
<polygon fill="midnightblue" stroke="midnightblue" points="209.47,-24.71 200.1,-19.75 204.33,-29.47 209.47,-24.71"/>
</g>
<!-- Node18&#45;&gt;Node5 -->
<g id="edge31" class="edge">
<title>Node18&#45;&gt;Node5</title>
<path fill="none" stroke="midnightblue" d="M249.76,-56.08C256.54,-48.3 266.54,-36.8 274.76,-27.37"/>
<polygon fill="midnightblue" stroke="midnightblue" points="277.46,-29.59 281.38,-19.75 272.18,-25 277.46,-29.59"/>
</g>
</g>
</svg>
