<?xml version="1.0" encoding="UTF-8" standalone="no"?>
<!DOCTYPE svg PUBLIC "-//W3C//DTD SVG 1.1//EN"
 "http://www.w3.org/Graphics/SVG/1.1/DTD/svg11.dtd">
<!-- Generated by graphviz version 3.0.0 (20220226.1711)
 -->
<!-- Title: Core/Src/stm32f4xx_it.c Pages: 1 -->
<svg width="729pt" height="308pt"
 viewBox="0.00 0.00 729.00 308.00" xmlns="http://www.w3.org/2000/svg" xmlns:xlink="http://www.w3.org/1999/xlink">
<g id="graph0" class="graph" transform="scale(1 1) rotate(0) translate(4 304)">
<title>Core/Src/stm32f4xx_it.c</title>
<polygon fill="white" stroke="transparent" points="-4,4 -4,-304 725,-304 725,4 -4,4"/>
<!-- Node1 -->
<g id="node1" class="node">
<title>Node1</title>
<g id="a_node1"><a xlink:title="Interrupt Service Routines.">
<polygon fill="#bfbfbf" stroke="black" points="244,-280.5 244,-299.5 366,-299.5 366,-280.5 244,-280.5"/>
<text text-anchor="middle" x="305" y="-287.5" font-family="Helvetica,sans-Serif" font-size="10.00">Core/Src/stm32f4xx_it.c</text>
</a>
</g>
</g>
<!-- Node2 -->
<g id="node2" class="node">
<title>Node2</title>
<g id="a_node2"><a xlink:href="main_8h.html" target="_top" xlink:title=": Header for main.c file. This file contains the common defines of the application.">
<polygon fill="white" stroke="black" points="282,-168.5 282,-187.5 328,-187.5 328,-168.5 282,-168.5"/>
<text text-anchor="middle" x="305" y="-175.5" font-family="Helvetica,sans-Serif" font-size="10.00">main.h</text>
</a>
</g>
</g>
<!-- Node1&#45;&gt;Node2 -->
<g id="edge1" class="edge">
<title>Node1&#45;&gt;Node2</title>
<path fill="none" stroke="midnightblue" d="M305,-280.37C305,-262.62 305,-221.67 305,-197.6"/>
<polygon fill="midnightblue" stroke="midnightblue" points="308.5,-197.59 305,-187.59 301.5,-197.59 308.5,-197.59"/>
</g>
<!-- Node13 -->
<g id="node13" class="node">
<title>Node13</title>
<g id="a_node13"><a xlink:href="stm32f4xx__it_8h.html" target="_top" xlink:title="This file contains the headers of the interrupt handlers.">
<polygon fill="white" stroke="black" points="333,-224.5 333,-243.5 413,-243.5 413,-224.5 333,-224.5"/>
<text text-anchor="middle" x="373" y="-231.5" font-family="Helvetica,sans-Serif" font-size="10.00">stm32f4xx_it.h</text>
</a>
</g>
</g>
<!-- Node1&#45;&gt;Node13 -->
<g id="edge21" class="edge">
<title>Node1&#45;&gt;Node13</title>
<path fill="none" stroke="midnightblue" d="M315.93,-280.32C326.17,-272.18 341.72,-259.84 354,-250.09"/>
<polygon fill="midnightblue" stroke="midnightblue" points="356.22,-252.79 361.88,-243.83 351.87,-247.31 356.22,-252.79"/>
</g>
<!-- Node14 -->
<g id="node14" class="node">
<title>Node14</title>
<g id="a_node14"><a xlink:href="front__layer_8h_source.html" target="_top" xlink:title=" ">
<polygon fill="white" stroke="black" points="207,-224.5 207,-243.5 277,-243.5 277,-224.5 207,-224.5"/>
<text text-anchor="middle" x="242" y="-231.5" font-family="Helvetica,sans-Serif" font-size="10.00">front_layer.h</text>
</a>
</g>
</g>
<!-- Node1&#45;&gt;Node14 -->
<g id="edge22" class="edge">
<title>Node1&#45;&gt;Node14</title>
<path fill="none" stroke="midnightblue" d="M294.88,-280.32C285.47,-272.26 271.26,-260.08 259.93,-250.37"/>
<polygon fill="midnightblue" stroke="midnightblue" points="262.18,-247.68 252.31,-243.83 257.62,-253 262.18,-247.68"/>
</g>
<!-- Node3 -->
<g id="node3" class="node">
<title>Node3</title>
<g id="a_node3"><a xlink:title=" ">
<polygon fill="white" stroke="#bfbfbf" points="0,-112.5 0,-131.5 88,-131.5 88,-112.5 0,-112.5"/>
<text text-anchor="middle" x="44" y="-119.5" font-family="Helvetica,sans-Serif" font-size="10.00">stm32f4xx_hal.h</text>
</a>
</g>
</g>
<!-- Node2&#45;&gt;Node3 -->
<g id="edge2" class="edge">
<title>Node2&#45;&gt;Node3</title>
<path fill="none" stroke="midnightblue" d="M281.84,-172.21C240.17,-163.59 151.68,-145.28 95.17,-133.59"/>
<polygon fill="midnightblue" stroke="midnightblue" points="95.85,-130.15 85.35,-131.56 94.44,-137.01 95.85,-130.15"/>
</g>
<!-- Node4 -->
<g id="node4" class="node">
<title>Node4</title>
<g id="a_node4"><a xlink:title=" ">
<polygon fill="white" stroke="#bfbfbf" points="167.5,-0.5 167.5,-19.5 216.5,-19.5 216.5,-0.5 167.5,-0.5"/>
<text text-anchor="middle" x="192" y="-7.5" font-family="Helvetica,sans-Serif" font-size="10.00">stdint.h</text>
</a>
</g>
</g>
<!-- Node2&#45;&gt;Node4 -->
<g id="edge3" class="edge">
<title>Node2&#45;&gt;Node4</title>
<path fill="none" stroke="midnightblue" d="M289.19,-168.35C263.68,-153.39 214.27,-120.02 194,-76 187.36,-61.58 187.41,-43.39 188.81,-29.92"/>
<polygon fill="midnightblue" stroke="midnightblue" points="192.29,-30.29 190.18,-19.9 185.35,-29.34 192.29,-30.29"/>
</g>
<!-- Node5 -->
<g id="node5" class="node">
<title>Node5</title>
<g id="a_node5"><a xlink:title=" ">
<polygon fill="white" stroke="#bfbfbf" points="266,-0.5 266,-19.5 312,-19.5 312,-0.5 266,-0.5"/>
<text text-anchor="middle" x="289" y="-7.5" font-family="Helvetica,sans-Serif" font-size="10.00">stdio.h</text>
</a>
</g>
</g>
<!-- Node2&#45;&gt;Node5 -->
<g id="edge4" class="edge">
<title>Node2&#45;&gt;Node5</title>
<path fill="none" stroke="midnightblue" d="M304.14,-168.08C301.62,-141.95 294.23,-65.21 290.79,-29.58"/>
<polygon fill="midnightblue" stroke="midnightblue" points="294.27,-29.19 289.83,-19.57 287.3,-29.86 294.27,-29.19"/>
</g>
<!-- Node6 -->
<g id="node6" class="node">
<title>Node6</title>
<g id="a_node6"><a xlink:title=" ">
<polygon fill="white" stroke="#bfbfbf" points="330.5,-0.5 330.5,-19.5 379.5,-19.5 379.5,-0.5 330.5,-0.5"/>
<text text-anchor="middle" x="355" y="-7.5" font-family="Helvetica,sans-Serif" font-size="10.00">string.h</text>
</a>
</g>
</g>
<!-- Node2&#45;&gt;Node6 -->
<g id="edge5" class="edge">
<title>Node2&#45;&gt;Node6</title>
<path fill="none" stroke="midnightblue" d="M307.69,-168.08C315.56,-141.95 338.67,-65.21 349.4,-29.58"/>
<polygon fill="midnightblue" stroke="midnightblue" points="352.89,-30.15 352.42,-19.57 346.18,-28.13 352.89,-30.15"/>
</g>
<!-- Node7 -->
<g id="node7" class="node">
<title>Node7</title>
<g id="a_node7"><a xlink:href="logic__layer_8h_source.html" target="_top" xlink:title=" ">
<polygon fill="white" stroke="black" points="396.5,-112.5 396.5,-131.5 467.5,-131.5 467.5,-112.5 396.5,-112.5"/>
<text text-anchor="middle" x="432" y="-119.5" font-family="Helvetica,sans-Serif" font-size="10.00">logic_layer.h</text>
</a>
</g>
</g>
<!-- Node2&#45;&gt;Node7 -->
<g id="edge6" class="edge">
<title>Node2&#45;&gt;Node7</title>
<path fill="none" stroke="midnightblue" d="M325.12,-168.44C346.02,-159.56 378.93,-145.56 402.72,-135.45"/>
<polygon fill="midnightblue" stroke="midnightblue" points="404.14,-138.65 411.97,-131.52 401.4,-132.21 404.14,-138.65"/>
</g>
<!-- Node8 -->
<g id="node8" class="node">
<title>Node8</title>
<g id="a_node8"><a xlink:title=" ">
<polygon fill="white" stroke="#bfbfbf" points="533,-0.5 533,-19.5 581,-19.5 581,-0.5 533,-0.5"/>
<text text-anchor="middle" x="557" y="-7.5" font-family="Helvetica,sans-Serif" font-size="10.00">stdlib.h</text>
</a>
</g>
</g>
<!-- Node2&#45;&gt;Node8 -->
<g id="edge19" class="edge">
<title>Node2&#45;&gt;Node8</title>
<path fill="none" stroke="midnightblue" d="M328.07,-176.11C363.29,-173.7 431.19,-164.79 477,-132 514.08,-105.46 538.72,-55.94 549.98,-29.22"/>
<polygon fill="midnightblue" stroke="midnightblue" points="553.37,-30.17 553.86,-19.59 546.88,-27.55 553.37,-30.17"/>
</g>
<!-- Node12 -->
<g id="node12" class="node">
<title>Node12</title>
<g id="a_node12"><a xlink:title=" ">
<polygon fill="white" stroke="#bfbfbf" points="599,-0.5 599,-19.5 721,-19.5 721,-0.5 599,-0.5"/>
<text text-anchor="middle" x="660" y="-7.5" font-family="Helvetica,sans-Serif" font-size="10.00">stm32_ub_vga_screen.h</text>
</a>
</g>
</g>
<!-- Node2&#45;&gt;Node12 -->
<g id="edge20" class="edge">
<title>Node2&#45;&gt;Node12</title>
<path fill="none" stroke="midnightblue" d="M328.06,-174.89C365.79,-170.76 442.35,-159.47 501,-132 559.64,-104.53 617.31,-52.78 644.24,-26.77"/>
<polygon fill="midnightblue" stroke="midnightblue" points="646.89,-29.07 651.58,-19.58 641.99,-24.07 646.89,-29.07"/>
</g>
<!-- Node7&#45;&gt;Node4 -->
<g id="edge8" class="edge">
<title>Node7&#45;&gt;Node4</title>
<path fill="none" stroke="midnightblue" d="M396.13,-118.15C340.64,-113.03 237.59,-100.45 211,-76 198.17,-64.2 193.83,-44.28 192.45,-29.59"/>
<polygon fill="midnightblue" stroke="midnightblue" points="195.94,-29.38 191.87,-19.6 188.95,-29.79 195.94,-29.38"/>
</g>
<!-- Node7&#45;&gt;Node5 -->
<g id="edge7" class="edge">
<title>Node7&#45;&gt;Node5</title>
<path fill="none" stroke="midnightblue" d="M420.78,-112.37C396.45,-93.65 338.6,-49.15 308.28,-25.83"/>
<polygon fill="midnightblue" stroke="midnightblue" points="310.23,-22.91 300.17,-19.59 305.96,-28.46 310.23,-22.91"/>
</g>
<!-- Node7&#45;&gt;Node6 -->
<g id="edge9" class="edge">
<title>Node7&#45;&gt;Node6</title>
<path fill="none" stroke="midnightblue" d="M425.96,-112.37C413.25,-94.22 383.56,-51.8 366.89,-27.99"/>
<polygon fill="midnightblue" stroke="midnightblue" points="369.62,-25.78 361.01,-19.59 363.88,-29.79 369.62,-25.78"/>
</g>
<!-- Node7&#45;&gt;Node8 -->
<g id="edge10" class="edge">
<title>Node7&#45;&gt;Node8</title>
<path fill="none" stroke="midnightblue" d="M442.24,-112.46C452.97,-103.48 470.29,-88.88 485,-76 504.06,-59.31 525.59,-39.78 540.1,-26.52"/>
<polygon fill="midnightblue" stroke="midnightblue" points="542.75,-28.84 547.76,-19.51 538.02,-23.68 542.75,-28.84"/>
</g>
<!-- Node9 -->
<g id="node9" class="node">
<title>Node9</title>
<g id="a_node9"><a xlink:href="_a_p_i_8h_source.html" target="_top" xlink:title=" ">
<polygon fill="white" stroke="black" points="434.5,-56.5 434.5,-75.5 475.5,-75.5 475.5,-56.5 434.5,-56.5"/>
<text text-anchor="middle" x="455" y="-63.5" font-family="Helvetica,sans-Serif" font-size="10.00">API.h</text>
</a>
</g>
</g>
<!-- Node7&#45;&gt;Node9 -->
<g id="edge11" class="edge">
<title>Node7&#45;&gt;Node9</title>
<path fill="none" stroke="midnightblue" d="M435.8,-112.08C438.91,-104.77 443.42,-94.18 447.29,-85.1"/>
<polygon fill="midnightblue" stroke="midnightblue" points="450.57,-86.32 451.27,-75.75 444.13,-83.58 450.57,-86.32"/>
</g>
<!-- Node9&#45;&gt;Node4 -->
<g id="edge13" class="edge">
<title>Node9&#45;&gt;Node4</title>
<path fill="none" stroke="midnightblue" d="M434.36,-60.76C389.43,-51.54 282.32,-29.54 226.76,-18.14"/>
<polygon fill="midnightblue" stroke="midnightblue" points="227.19,-14.65 216.69,-16.07 225.78,-21.51 227.19,-14.65"/>
</g>
<!-- Node9&#45;&gt;Node5 -->
<g id="edge12" class="edge">
<title>Node9&#45;&gt;Node5</title>
<path fill="none" stroke="midnightblue" d="M434.31,-58.27C406.11,-49.1 355.3,-32.57 321.86,-21.69"/>
<polygon fill="midnightblue" stroke="midnightblue" points="322.68,-18.27 312.09,-18.51 320.51,-24.93 322.68,-18.27"/>
</g>
<!-- Node9&#45;&gt;Node6 -->
<g id="edge15" class="edge">
<title>Node9&#45;&gt;Node6</title>
<path fill="none" stroke="midnightblue" d="M438.93,-56.32C423.04,-47.74 398.49,-34.49 380.04,-24.52"/>
<polygon fill="midnightblue" stroke="midnightblue" points="381.49,-21.33 371.03,-19.65 378.16,-27.49 381.49,-21.33"/>
</g>
<!-- Node9&#45;&gt;Node8 -->
<g id="edge17" class="edge">
<title>Node9&#45;&gt;Node8</title>
<path fill="none" stroke="midnightblue" d="M471.39,-56.32C487.67,-47.7 512.87,-34.36 531.72,-24.39"/>
<polygon fill="midnightblue" stroke="midnightblue" points="533.45,-27.43 540.65,-19.65 530.18,-21.24 533.45,-27.43"/>
</g>
<!-- Node10 -->
<g id="node10" class="node">
<title>Node10</title>
<g id="a_node10"><a xlink:title=" ">
<polygon fill="white" stroke="#bfbfbf" points="397.5,-0.5 397.5,-19.5 444.5,-19.5 444.5,-0.5 397.5,-0.5"/>
<text text-anchor="middle" x="421" y="-7.5" font-family="Helvetica,sans-Serif" font-size="10.00">math.h</text>
</a>
</g>
</g>
<!-- Node9&#45;&gt;Node10 -->
<g id="edge14" class="edge">
<title>Node9&#45;&gt;Node10</title>
<path fill="none" stroke="midnightblue" d="M449.39,-56.08C444.63,-48.53 437.68,-37.49 431.85,-28.23"/>
<polygon fill="midnightblue" stroke="midnightblue" points="434.8,-26.35 426.51,-19.75 428.88,-30.08 434.8,-26.35"/>
</g>
<!-- Node11 -->
<g id="node11" class="node">
<title>Node11</title>
<g id="a_node11"><a xlink:title=" ">
<polygon fill="white" stroke="#bfbfbf" points="463,-0.5 463,-19.5 515,-19.5 515,-0.5 463,-0.5"/>
<text text-anchor="middle" x="489" y="-7.5" font-family="Helvetica,sans-Serif" font-size="10.00">stdarg.h</text>
</a>
</g>
</g>
<!-- Node9&#45;&gt;Node11 -->
<g id="edge16" class="edge">
<title>Node9&#45;&gt;Node11</title>
<path fill="none" stroke="midnightblue" d="M460.61,-56.08C465.37,-48.53 472.32,-37.49 478.15,-28.23"/>
<polygon fill="midnightblue" stroke="midnightblue" points="481.12,-30.08 483.49,-19.75 475.2,-26.35 481.12,-30.08"/>
</g>
<!-- Node9&#45;&gt;Node12 -->
<g id="edge18" class="edge">
<title>Node9&#45;&gt;Node12</title>
<path fill="none" stroke="midnightblue" d="M475.78,-59.53C508.93,-50.79 574.43,-33.54 617.72,-22.14"/>
<polygon fill="midnightblue" stroke="midnightblue" points="618.63,-25.52 627.41,-19.59 616.85,-18.75 618.63,-25.52"/>
</g>
<!-- Node14&#45;&gt;Node2 -->
<g id="edge24" class="edge">
<title>Node14&#45;&gt;Node2</title>
<path fill="none" stroke="midnightblue" d="M252.12,-224.32C261.53,-216.26 275.74,-204.08 287.07,-194.37"/>
<polygon fill="midnightblue" stroke="midnightblue" points="289.38,-197 294.69,-187.83 284.82,-191.68 289.38,-197"/>
</g>
<!-- Node14&#45;&gt;Node4 -->
<g id="edge23" class="edge">
<title>Node14&#45;&gt;Node4</title>
<path fill="none" stroke="midnightblue" d="M238.45,-224.34C229.07,-200.93 203.62,-134.21 194,-76 191.47,-60.66 191.08,-43.02 191.26,-29.99"/>
<polygon fill="midnightblue" stroke="midnightblue" points="194.76,-29.99 191.53,-19.9 187.77,-29.81 194.76,-29.99"/>
</g>
<!-- Node15 -->
<g id="node15" class="node">
<title>Node15</title>
<g id="a_node15"><a xlink:href="error_8h_source.html" target="_top" xlink:title=" ">
<polygon fill="white" stroke="black" points="220,-56.5 220,-75.5 264,-75.5 264,-56.5 220,-56.5"/>
<text text-anchor="middle" x="242" y="-63.5" font-family="Helvetica,sans-Serif" font-size="10.00">error.h</text>
</a>
</g>
</g>
<!-- Node14&#45;&gt;Node15 -->
<g id="edge25" class="edge">
<title>Node14&#45;&gt;Node15</title>
<path fill="none" stroke="midnightblue" d="M242,-224.08C242,-197.95 242,-121.21 242,-85.58"/>
<polygon fill="midnightblue" stroke="midnightblue" points="245.5,-85.57 242,-75.57 238.5,-85.57 245.5,-85.57"/>
</g>
<!-- Node15&#45;&gt;Node4 -->
<g id="edge26" class="edge">
<title>Node15&#45;&gt;Node4</title>
<path fill="none" stroke="midnightblue" d="M233.74,-56.08C226.54,-48.3 215.89,-36.8 207.15,-27.37"/>
<polygon fill="midnightblue" stroke="midnightblue" points="209.47,-24.71 200.1,-19.75 204.33,-29.47 209.47,-24.71"/>
</g>
<!-- Node15&#45;&gt;Node5 -->
<g id="edge27" class="edge">
<title>Node15&#45;&gt;Node5</title>
<path fill="none" stroke="midnightblue" d="M249.76,-56.08C256.54,-48.3 266.54,-36.8 274.76,-27.37"/>
<polygon fill="midnightblue" stroke="midnightblue" points="277.46,-29.59 281.38,-19.75 272.18,-25 277.46,-29.59"/>
</g>
</g>
</svg>
