<?xml version="1.0" encoding="UTF-8" standalone="no"?>
<!DOCTYPE svg PUBLIC "-//W3C//DTD SVG 1.1//EN"
 "http://www.w3.org/Graphics/SVG/1.1/DTD/svg11.dtd">
<!-- Generated by graphviz version 3.0.0 (20220226.1711)
 -->
<!-- Title: Core/Inc/main.h Pages: 1 -->
<svg width="466pt" height="140pt"
 viewBox="0.00 0.00 465.50 140.00" xmlns="http://www.w3.org/2000/svg" xmlns:xlink="http://www.w3.org/1999/xlink">
<g id="graph0" class="graph" transform="scale(1 1) rotate(0) translate(4 136)">
<title>Core/Inc/main.h</title>
<polygon fill="white" stroke="transparent" points="-4,4 -4,-136 461.5,-136 461.5,4 -4,4"/>
<!-- Node1 -->
<g id="node1" class="node">
<title>Node1</title>
<g id="a_node1"><a xlink:title=": Header for main.c file. This file contains the common defines of the application.">
<polygon fill="#bfbfbf" stroke="black" points="112,-112.5 112,-131.5 197,-131.5 197,-112.5 112,-112.5"/>
<text text-anchor="middle" x="154.5" y="-119.5" font-family="Helvetica,sans-Serif" font-size="10.00">Core/Inc/main.h</text>
</a>
</g>
</g>
<!-- Node2 -->
<g id="node2" class="node">
<title>Node2</title>
<g id="a_node2"><a xlink:href="dma_8h_source.html" target="_top" xlink:title=" ">
<polygon fill="white" stroke="black" points="2,-56.5 2,-75.5 85,-75.5 85,-56.5 2,-56.5"/>
<text text-anchor="middle" x="43.5" y="-63.5" font-family="Helvetica,sans-Serif" font-size="10.00">Core/Inc/dma.h</text>
</a>
</g>
</g>
<!-- Node1&#45;&gt;Node2 -->
<g id="edge1" class="edge">
<title>Node1&#45;&gt;Node2</title>
<path fill="none" stroke="midnightblue" d="M127.49,-107.86C106.91,-97.85 79.16,-84.35 61.29,-75.65"/>
<polygon fill="midnightblue" stroke="midnightblue" points="126.14,-111.1 136.67,-112.32 129.2,-104.8 126.14,-111.1"/>
</g>
<!-- Node3 -->
<g id="node3" class="node">
<title>Node3</title>
<g id="a_node3"><a xlink:href="main_8c.html" target="_top" xlink:title=": Main program body">
<polygon fill="white" stroke="black" points="0,-0.5 0,-19.5 87,-19.5 87,-0.5 0,-0.5"/>
<text text-anchor="middle" x="43.5" y="-7.5" font-family="Helvetica,sans-Serif" font-size="10.00">Core/Src/main.c</text>
</a>
</g>
</g>
<!-- Node1&#45;&gt;Node3 -->
<g id="edge8" class="edge">
<title>Node1&#45;&gt;Node3</title>
<path fill="none" stroke="midnightblue" d="M140.09,-104.9C127.95,-91.52 109.98,-72.14 93.5,-56 80.15,-42.93 63.96,-28.62 53.69,-19.72"/>
<polygon fill="midnightblue" stroke="midnightblue" points="137.53,-107.29 146.83,-112.37 142.73,-102.6 137.53,-107.29"/>
</g>
<!-- Node4 -->
<g id="node4" class="node">
<title>Node4</title>
<g id="a_node4"><a xlink:href="front__layer_8h_source.html" target="_top" xlink:title=" ">
<polygon fill="white" stroke="black" points="142,-56.5 142,-75.5 251,-75.5 251,-56.5 142,-56.5"/>
<text text-anchor="middle" x="196.5" y="-63.5" font-family="Helvetica,sans-Serif" font-size="10.00">Core/Inc/front_layer.h</text>
</a>
</g>
</g>
<!-- Node1&#45;&gt;Node4 -->
<g id="edge3" class="edge">
<title>Node1&#45;&gt;Node4</title>
<path fill="none" stroke="midnightblue" d="M167.61,-104.14C174.93,-94.74 183.74,-83.4 189.69,-75.75"/>
<polygon fill="midnightblue" stroke="midnightblue" points="164.81,-102.04 161.44,-112.08 170.34,-106.34 164.81,-102.04"/>
</g>
<!-- Node7 -->
<g id="node7" class="node">
<title>Node7</title>
<g id="a_node7"><a xlink:href="stm32f4xx__it_8c.html" target="_top" xlink:title="Interrupt Service Routines.">
<polygon fill="white" stroke="black" points="335.5,-0.5 335.5,-19.5 457.5,-19.5 457.5,-0.5 335.5,-0.5"/>
<text text-anchor="middle" x="396.5" y="-7.5" font-family="Helvetica,sans-Serif" font-size="10.00">Core/Src/stm32f4xx_it.c</text>
</a>
</g>
</g>
<!-- Node1&#45;&gt;Node7 -->
<g id="edge9" class="edge">
<title>Node1&#45;&gt;Node7</title>
<path fill="none" stroke="midnightblue" d="M184.82,-108.55C206.1,-99.71 235.17,-87.42 260.5,-76 303.44,-56.64 353.23,-32.37 379.01,-19.66"/>
<polygon fill="midnightblue" stroke="midnightblue" points="183.24,-105.42 175.34,-112.48 185.91,-111.88 183.24,-105.42"/>
</g>
<!-- Node2&#45;&gt;Node3 -->
<g id="edge2" class="edge">
<title>Node2&#45;&gt;Node3</title>
<path fill="none" stroke="midnightblue" d="M43.5,-45.8C43.5,-36.91 43.5,-26.78 43.5,-19.75"/>
<polygon fill="midnightblue" stroke="midnightblue" points="40,-46.08 43.5,-56.08 47,-46.08 40,-46.08"/>
</g>
<!-- Node4&#45;&gt;Node3 -->
<g id="edge6" class="edge">
<title>Node4&#45;&gt;Node3</title>
<path fill="none" stroke="midnightblue" d="M162.61,-53.04C133.82,-42.88 93.21,-28.55 67.63,-19.52"/>
<polygon fill="midnightblue" stroke="midnightblue" points="161.66,-56.42 172.26,-56.44 163.99,-49.81 161.66,-56.42"/>
</g>
<!-- Node5 -->
<g id="node5" class="node">
<title>Node5</title>
<g id="a_node5"><a xlink:href="_a_p_i_8c.html" target="_top" xlink:title=": Library for Graphics.">
<polygon fill="white" stroke="black" points="105.5,-0.5 105.5,-19.5 187.5,-19.5 187.5,-0.5 105.5,-0.5"/>
<text text-anchor="middle" x="146.5" y="-7.5" font-family="Helvetica,sans-Serif" font-size="10.00">Core/Src/API.c</text>
</a>
</g>
</g>
<!-- Node4&#45;&gt;Node5 -->
<g id="edge4" class="edge">
<title>Node4&#45;&gt;Node5</title>
<path fill="none" stroke="midnightblue" d="M181.42,-48.72C172.61,-39.2 161.83,-27.56 154.6,-19.75"/>
<polygon fill="midnightblue" stroke="midnightblue" points="178.88,-51.12 188.24,-56.08 184.02,-46.37 178.88,-51.12"/>
</g>
<!-- Node6 -->
<g id="node6" class="node">
<title>Node6</title>
<g id="a_node6"><a xlink:href="front__layer_8c.html" target="_top" xlink:title=" ">
<polygon fill="white" stroke="black" points="206,-0.5 206,-19.5 317,-19.5 317,-0.5 206,-0.5"/>
<text text-anchor="middle" x="261.5" y="-7.5" font-family="Helvetica,sans-Serif" font-size="10.00">Core/Src/front_layer.c</text>
</a>
</g>
</g>
<!-- Node4&#45;&gt;Node6 -->
<g id="edge5" class="edge">
<title>Node4&#45;&gt;Node6</title>
<path fill="none" stroke="midnightblue" d="M214.77,-49.82C226.42,-40.15 241.1,-27.95 250.87,-19.83"/>
<polygon fill="midnightblue" stroke="midnightblue" points="212.4,-47.24 206.94,-56.32 216.87,-52.63 212.4,-47.24"/>
</g>
<!-- Node4&#45;&gt;Node7 -->
<g id="edge7" class="edge">
<title>Node4&#45;&gt;Node7</title>
<path fill="none" stroke="midnightblue" d="M237.87,-53.83C275.64,-43.63 330.64,-28.78 364.96,-19.52"/>
<polygon fill="midnightblue" stroke="midnightblue" points="236.93,-50.46 228.19,-56.44 238.76,-57.22 236.93,-50.46"/>
</g>
</g>
</svg>
