<?xml version="1.0" encoding="UTF-8" standalone="no"?>
<!DOCTYPE svg PUBLIC "-//W3C//DTD SVG 1.1//EN"
 "http://www.w3.org/Graphics/SVG/1.1/DTD/svg11.dtd">
<!-- Generated by graphviz version 3.0.0 (20220226.1711)
 -->
<!-- Title: main Pages: 1 -->
<svg width="301pt" height="142pt"
 viewBox="0.00 0.00 301.00 142.00" xmlns="http://www.w3.org/2000/svg" xmlns:xlink="http://www.w3.org/1999/xlink">
<g id="graph0" class="graph" transform="scale(1 1) rotate(0) translate(4 138)">
<title>main</title>
<polygon fill="white" stroke="transparent" points="-4,4 -4,-138 297,-138 297,4 -4,4"/>
<!-- Node1 -->
<g id="node1" class="node">
<title>Node1</title>
<g id="a_node1"><a xlink:title="The application entry point.">
<polygon fill="#bfbfbf" stroke="black" points="0,-57.5 0,-76.5 38,-76.5 38,-57.5 0,-57.5"/>
<text text-anchor="middle" x="19" y="-64.5" font-family="Helvetica,sans-Serif" font-size="10.00">main</text>
</a>
</g>
</g>
<!-- Node2 -->
<g id="node2" class="node">
<title>Node2</title>
<g id="a_node2"><a xlink:href="_a_p_i_8c.html#a304c05f31c0a48f4bb4a7f532946ae18" target="_top" xlink:title="Draw text function, this function prints the text on the screen.">
<polygon fill="white" stroke="black" points="99.5,-114.5 99.5,-133.5 155.5,-133.5 155.5,-114.5 99.5,-114.5"/>
<text text-anchor="middle" x="127.5" y="-121.5" font-family="Helvetica,sans-Serif" font-size="10.00">drawText</text>
</a>
</g>
</g>
<!-- Node1&#45;&gt;Node2 -->
<g id="edge1" class="edge">
<title>Node1&#45;&gt;Node2</title>
<path fill="none" stroke="midnightblue" d="M31.84,-76.73C42.41,-85.06 58.55,-96.95 74,-105 79,-107.6 84.43,-110 89.85,-112.16"/>
<polygon fill="midnightblue" stroke="midnightblue" points="88.88,-115.54 99.48,-115.77 91.34,-108.98 88.88,-115.54"/>
</g>
<!-- Node3 -->
<g id="node3" class="node">
<title>Node3</title>
<g id="a_node3"><a xlink:href="front__layer_8c.html#a3453d42c4849d5305ce47584eee502ce" target="_top" xlink:title="Function to check if the UART buffer is filled.">
<polygon fill="white" stroke="black" points="96.5,-76.5 96.5,-95.5 158.5,-95.5 158.5,-76.5 96.5,-76.5"/>
<text text-anchor="middle" x="127.5" y="-83.5" font-family="Helvetica,sans-Serif" font-size="10.00">FL_Parser</text>
</a>
</g>
</g>
<!-- Node1&#45;&gt;Node3 -->
<g id="edge2" class="edge">
<title>Node1&#45;&gt;Node3</title>
<path fill="none" stroke="midnightblue" d="M38.07,-70.22C51.24,-72.57 69.61,-75.85 86.19,-78.81"/>
<polygon fill="midnightblue" stroke="midnightblue" points="85.77,-82.29 96.23,-80.6 87,-75.4 85.77,-82.29"/>
</g>
<!-- Node4 -->
<g id="node4" class="node">
<title>Node4</title>
<g id="a_node4"><a xlink:href="front__layer_8c.html#a6206b4e1a93bff0ae434d4808e3c2637" target="_top" xlink:title="Function for initialisatie of the UART.">
<polygon fill="white" stroke="black" points="89,-38.5 89,-57.5 166,-57.5 166,-38.5 89,-38.5"/>
<text text-anchor="middle" x="127.5" y="-45.5" font-family="Helvetica,sans-Serif" font-size="10.00">FL_UART_Init</text>
</a>
</g>
</g>
<!-- Node1&#45;&gt;Node4 -->
<g id="edge3" class="edge">
<title>Node1&#45;&gt;Node4</title>
<path fill="none" stroke="midnightblue" d="M38.07,-63.78C49.35,-61.76 64.45,-59.07 78.97,-56.48"/>
<polygon fill="midnightblue" stroke="midnightblue" points="79.65,-59.91 88.88,-54.71 78.42,-53.02 79.65,-59.91"/>
</g>
<!-- Node5 -->
<g id="node5" class="node">
<title>Node5</title>
<g id="a_node5"><a xlink:href="main_8c.html#a70af21c671abfcc773614a9a4f63d920" target="_top" xlink:title="System Clock Configuration.">
<polygon fill="white" stroke="black" points="74,-0.5 74,-19.5 181,-19.5 181,-0.5 74,-0.5"/>
<text text-anchor="middle" x="127.5" y="-7.5" font-family="Helvetica,sans-Serif" font-size="10.00">SystemClock_Config</text>
</a>
</g>
</g>
<!-- Node1&#45;&gt;Node5 -->
<g id="edge4" class="edge">
<title>Node1&#45;&gt;Node5</title>
<path fill="none" stroke="midnightblue" d="M31.84,-57.27C42.41,-48.94 58.55,-37.05 74,-29 77.98,-26.93 82.23,-24.99 86.53,-23.19"/>
<polygon fill="midnightblue" stroke="midnightblue" points="87.89,-26.42 95.93,-19.51 85.34,-19.9 87.89,-26.42"/>
</g>
<!-- Node6 -->
<g id="node6" class="node">
<title>Node6</title>
<g id="a_node6"><a xlink:href="main_8c.html#a1730ffe1e560465665eb47d9264826f9" target="_top" xlink:title="This function is executed in case of error occurrence.">
<polygon fill="white" stroke="black" points="217,-0.5 217,-19.5 293,-19.5 293,-0.5 217,-0.5"/>
<text text-anchor="middle" x="255" y="-7.5" font-family="Helvetica,sans-Serif" font-size="10.00">Error_Handler</text>
</a>
</g>
</g>
<!-- Node5&#45;&gt;Node6 -->
<g id="edge5" class="edge">
<title>Node5&#45;&gt;Node6</title>
<path fill="none" stroke="midnightblue" d="M181.36,-10C189.74,-10 198.37,-10 206.62,-10"/>
<polygon fill="midnightblue" stroke="midnightblue" points="206.82,-13.5 216.82,-10 206.82,-6.5 206.82,-13.5"/>
</g>
</g>
</svg>
