<?xml version="1.0" encoding="UTF-8" standalone="no"?>
<!DOCTYPE svg PUBLIC "-//W3C//DTD SVG 1.1//EN"
 "http://www.w3.org/Graphics/SVG/1.1/DTD/svg11.dtd">
<!-- Generated by graphviz version 3.0.0 (20220226.1711)
 -->
<!-- Title: Core/Inc/main.h Pages: 1 -->
<svg width="619pt" height="196pt"
 viewBox="0.00 0.00 619.00 196.00" xmlns="http://www.w3.org/2000/svg" xmlns:xlink="http://www.w3.org/1999/xlink">
<g id="graph0" class="graph" transform="scale(1 1) rotate(0) translate(4 192)">
<title>Core/Inc/main.h</title>
<polygon fill="white" stroke="transparent" points="-4,4 -4,-192 615,-192 615,4 -4,4"/>
<!-- Node1 -->
<g id="node1" class="node">
<title>Node1</title>
<g id="a_node1"><a xlink:title=": Header for main.c file. This file contains the common defines of the application.">
<polygon fill="#bfbfbf" stroke="black" points="187.5,-168.5 187.5,-187.5 272.5,-187.5 272.5,-168.5 187.5,-168.5"/>
<text text-anchor="middle" x="230" y="-175.5" font-family="Helvetica,sans-Serif" font-size="10.00">Core/Inc/main.h</text>
</a>
</g>
</g>
<!-- Node2 -->
<g id="node2" class="node">
<title>Node2</title>
<g id="a_node2"><a xlink:title=" ">
<polygon fill="white" stroke="#bfbfbf" points="0,-112.5 0,-131.5 88,-131.5 88,-112.5 0,-112.5"/>
<text text-anchor="middle" x="44" y="-119.5" font-family="Helvetica,sans-Serif" font-size="10.00">stm32f4xx_hal.h</text>
</a>
</g>
</g>
<!-- Node1&#45;&gt;Node2 -->
<g id="edge1" class="edge">
<title>Node1&#45;&gt;Node2</title>
<path fill="none" stroke="midnightblue" d="M200.53,-168.44C168.83,-159.24 118.27,-144.56 83.23,-134.39"/>
<polygon fill="midnightblue" stroke="midnightblue" points="83.91,-130.94 73.33,-131.52 81.96,-137.67 83.91,-130.94"/>
</g>
<!-- Node3 -->
<g id="node3" class="node">
<title>Node3</title>
<g id="a_node3"><a xlink:title=" ">
<polygon fill="white" stroke="#bfbfbf" points="87.5,-0.5 87.5,-19.5 136.5,-19.5 136.5,-0.5 87.5,-0.5"/>
<text text-anchor="middle" x="112" y="-7.5" font-family="Helvetica,sans-Serif" font-size="10.00">stdint.h</text>
</a>
</g>
</g>
<!-- Node1&#45;&gt;Node3 -->
<g id="edge2" class="edge">
<title>Node1&#45;&gt;Node3</title>
<path fill="none" stroke="midnightblue" d="M223.66,-168.08C204.76,-141.49 148.64,-62.54 123.92,-27.76"/>
<polygon fill="midnightblue" stroke="midnightblue" points="126.74,-25.69 118.09,-19.57 121.03,-29.75 126.74,-25.69"/>
</g>
<!-- Node4 -->
<g id="node4" class="node">
<title>Node4</title>
<g id="a_node4"><a xlink:title=" ">
<polygon fill="white" stroke="#bfbfbf" points="155,-0.5 155,-19.5 201,-19.5 201,-0.5 155,-0.5"/>
<text text-anchor="middle" x="178" y="-7.5" font-family="Helvetica,sans-Serif" font-size="10.00">stdio.h</text>
</a>
</g>
</g>
<!-- Node1&#45;&gt;Node4 -->
<g id="edge3" class="edge">
<title>Node1&#45;&gt;Node4</title>
<path fill="none" stroke="midnightblue" d="M227.2,-168.08C218.98,-141.83 194.77,-64.55 183.68,-29.12"/>
<polygon fill="midnightblue" stroke="midnightblue" points="187.01,-28.06 180.68,-19.57 180.33,-30.16 187.01,-28.06"/>
</g>
<!-- Node5 -->
<g id="node5" class="node">
<title>Node5</title>
<g id="a_node5"><a xlink:title=" ">
<polygon fill="white" stroke="#bfbfbf" points="219.5,-0.5 219.5,-19.5 268.5,-19.5 268.5,-0.5 219.5,-0.5"/>
<text text-anchor="middle" x="244" y="-7.5" font-family="Helvetica,sans-Serif" font-size="10.00">string.h</text>
</a>
</g>
</g>
<!-- Node1&#45;&gt;Node5 -->
<g id="edge4" class="edge">
<title>Node1&#45;&gt;Node5</title>
<path fill="none" stroke="midnightblue" d="M230.75,-168.08C232.96,-141.95 239.43,-65.21 242.43,-29.58"/>
<polygon fill="midnightblue" stroke="midnightblue" points="245.92,-29.83 243.28,-19.57 238.95,-29.24 245.92,-29.83"/>
</g>
<!-- Node6 -->
<g id="node6" class="node">
<title>Node6</title>
<g id="a_node6"><a xlink:href="logic__layer_8h_source.html" target="_top" xlink:title=" ">
<polygon fill="white" stroke="black" points="264.5,-112.5 264.5,-131.5 335.5,-131.5 335.5,-112.5 264.5,-112.5"/>
<text text-anchor="middle" x="300" y="-119.5" font-family="Helvetica,sans-Serif" font-size="10.00">logic_layer.h</text>
</a>
</g>
</g>
<!-- Node1&#45;&gt;Node6 -->
<g id="edge5" class="edge">
<title>Node1&#45;&gt;Node6</title>
<path fill="none" stroke="midnightblue" d="M241.25,-168.32C251.8,-160.18 267.8,-147.84 280.44,-138.09"/>
<polygon fill="midnightblue" stroke="midnightblue" points="282.77,-140.71 288.55,-131.83 278.49,-135.17 282.77,-140.71"/>
</g>
<!-- Node7 -->
<g id="node7" class="node">
<title>Node7</title>
<g id="a_node7"><a xlink:title=" ">
<polygon fill="white" stroke="#bfbfbf" points="423,-0.5 423,-19.5 471,-19.5 471,-0.5 423,-0.5"/>
<text text-anchor="middle" x="447" y="-7.5" font-family="Helvetica,sans-Serif" font-size="10.00">stdlib.h</text>
</a>
</g>
</g>
<!-- Node1&#45;&gt;Node7 -->
<g id="edge18" class="edge">
<title>Node1&#45;&gt;Node7</title>
<path fill="none" stroke="midnightblue" d="M259.33,-168.37C283.11,-160.7 316.99,-148.18 344,-132 377,-112.23 385.44,-105.61 410,-76 422.02,-61.5 432.3,-42.57 438.95,-28.88"/>
<polygon fill="midnightblue" stroke="midnightblue" points="442.22,-30.13 443.29,-19.59 435.88,-27.17 442.22,-30.13"/>
</g>
<!-- Node11 -->
<g id="node11" class="node">
<title>Node11</title>
<g id="a_node11"><a xlink:title=" ">
<polygon fill="white" stroke="#bfbfbf" points="489,-0.5 489,-19.5 611,-19.5 611,-0.5 489,-0.5"/>
<text text-anchor="middle" x="550" y="-7.5" font-family="Helvetica,sans-Serif" font-size="10.00">stm32_ub_vga_screen.h</text>
</a>
</g>
</g>
<!-- Node1&#45;&gt;Node11 -->
<g id="edge19" class="edge">
<title>Node1&#45;&gt;Node11</title>
<path fill="none" stroke="midnightblue" d="M267.86,-168.48C297.61,-161.01 339.61,-148.72 374,-132 436.22,-101.75 501.23,-51.32 531.92,-26.19"/>
<polygon fill="midnightblue" stroke="midnightblue" points="534.49,-28.61 539.97,-19.54 530.03,-23.21 534.49,-28.61"/>
</g>
<!-- Node6&#45;&gt;Node3 -->
<g id="edge7" class="edge">
<title>Node6&#45;&gt;Node3</title>
<path fill="none" stroke="midnightblue" d="M285.25,-112.37C252.71,-93.33 174.58,-47.62 135.33,-24.65"/>
<polygon fill="midnightblue" stroke="midnightblue" points="137.08,-21.62 126.68,-19.59 133.55,-27.66 137.08,-21.62"/>
</g>
<!-- Node6&#45;&gt;Node4 -->
<g id="edge6" class="edge">
<title>Node6&#45;&gt;Node4</title>
<path fill="none" stroke="midnightblue" d="M290.43,-112.37C269.85,-93.81 221.16,-49.91 195.12,-26.44"/>
<polygon fill="midnightblue" stroke="midnightblue" points="197.3,-23.69 187.53,-19.59 192.61,-28.89 197.3,-23.69"/>
</g>
<!-- Node6&#45;&gt;Node5 -->
<g id="edge8" class="edge">
<title>Node6&#45;&gt;Node5</title>
<path fill="none" stroke="midnightblue" d="M298.78,-112.14C296.74,-99.2 291.84,-74.64 282,-56 276.41,-45.42 268,-35.11 260.5,-27.04"/>
<polygon fill="midnightblue" stroke="midnightblue" points="262.93,-24.51 253.46,-19.78 257.91,-29.39 262.93,-24.51"/>
</g>
<!-- Node6&#45;&gt;Node7 -->
<g id="edge9" class="edge">
<title>Node6&#45;&gt;Node7</title>
<path fill="none" stroke="midnightblue" d="M320.04,-112.41C337.74,-104.34 363.79,-91.25 384,-76 402.91,-61.73 421.39,-41.74 433.39,-27.7"/>
<polygon fill="midnightblue" stroke="midnightblue" points="436.24,-29.75 439.97,-19.84 430.87,-25.26 436.24,-29.75"/>
</g>
<!-- Node8 -->
<g id="node8" class="node">
<title>Node8</title>
<g id="a_node8"><a xlink:href="_a_p_i_8h_source.html" target="_top" xlink:title=" ">
<polygon fill="white" stroke="black" points="334.5,-56.5 334.5,-75.5 375.5,-75.5 375.5,-56.5 334.5,-56.5"/>
<text text-anchor="middle" x="355" y="-63.5" font-family="Helvetica,sans-Serif" font-size="10.00">API.h</text>
</a>
</g>
</g>
<!-- Node6&#45;&gt;Node8 -->
<g id="edge10" class="edge">
<title>Node6&#45;&gt;Node8</title>
<path fill="none" stroke="midnightblue" d="M309.08,-112.08C317.17,-104.14 329.2,-92.34 338.91,-82.8"/>
<polygon fill="midnightblue" stroke="midnightblue" points="341.4,-85.25 346.09,-75.75 336.5,-80.26 341.4,-85.25"/>
</g>
<!-- Node8&#45;&gt;Node3 -->
<g id="edge12" class="edge">
<title>Node8&#45;&gt;Node3</title>
<path fill="none" stroke="midnightblue" d="M334.46,-60.91C298.53,-53.68 221.73,-37.92 146.91,-20.13"/>
<polygon fill="midnightblue" stroke="midnightblue" points="147.39,-16.64 136.85,-17.72 145.76,-23.45 147.39,-16.64"/>
</g>
<!-- Node8&#45;&gt;Node4 -->
<g id="edge11" class="edge">
<title>Node8&#45;&gt;Node4</title>
<path fill="none" stroke="midnightblue" d="M334.35,-58.7C303.92,-49.42 246.76,-31.98 210.63,-20.95"/>
<polygon fill="midnightblue" stroke="midnightblue" points="211.62,-17.6 201.03,-18.03 209.58,-24.29 211.62,-17.6"/>
</g>
<!-- Node8&#45;&gt;Node5 -->
<g id="edge14" class="edge">
<title>Node8&#45;&gt;Node5</title>
<path fill="none" stroke="midnightblue" d="M337.17,-56.32C319.28,-47.62 291.52,-34.12 270.95,-24.11"/>
<polygon fill="midnightblue" stroke="midnightblue" points="272.31,-20.88 261.79,-19.65 269.25,-27.18 272.31,-20.88"/>
</g>
<!-- Node8&#45;&gt;Node7 -->
<g id="edge16" class="edge">
<title>Node8&#45;&gt;Node7</title>
<path fill="none" stroke="midnightblue" d="M369.78,-56.32C384.27,-47.82 406.57,-34.73 423.49,-24.8"/>
<polygon fill="midnightblue" stroke="midnightblue" points="425.4,-27.74 432.26,-19.65 421.86,-21.7 425.4,-27.74"/>
</g>
<!-- Node9 -->
<g id="node9" class="node">
<title>Node9</title>
<g id="a_node9"><a xlink:title=" ">
<polygon fill="white" stroke="#bfbfbf" points="357.5,-0.5 357.5,-19.5 404.5,-19.5 404.5,-0.5 357.5,-0.5"/>
<text text-anchor="middle" x="381" y="-7.5" font-family="Helvetica,sans-Serif" font-size="10.00">math.h</text>
</a>
</g>
</g>
<!-- Node8&#45;&gt;Node9 -->
<g id="edge13" class="edge">
<title>Node8&#45;&gt;Node9</title>
<path fill="none" stroke="midnightblue" d="M359.29,-56.08C362.85,-48.69 368.02,-37.95 372.42,-28.81"/>
<polygon fill="midnightblue" stroke="midnightblue" points="375.6,-30.28 376.79,-19.75 369.29,-27.24 375.6,-30.28"/>
</g>
<!-- Node10 -->
<g id="node10" class="node">
<title>Node10</title>
<g id="a_node10"><a xlink:title=" ">
<polygon fill="white" stroke="#bfbfbf" points="287,-0.5 287,-19.5 339,-19.5 339,-0.5 287,-0.5"/>
<text text-anchor="middle" x="313" y="-7.5" font-family="Helvetica,sans-Serif" font-size="10.00">stdarg.h</text>
</a>
</g>
</g>
<!-- Node8&#45;&gt;Node10 -->
<g id="edge15" class="edge">
<title>Node8&#45;&gt;Node10</title>
<path fill="none" stroke="midnightblue" d="M348.06,-56.08C342.07,-48.38 333.25,-37.03 325.95,-27.65"/>
<polygon fill="midnightblue" stroke="midnightblue" points="328.71,-25.5 319.81,-19.75 323.18,-29.79 328.71,-25.5"/>
</g>
<!-- Node8&#45;&gt;Node11 -->
<g id="edge17" class="edge">
<title>Node8&#45;&gt;Node11</title>
<path fill="none" stroke="midnightblue" d="M375.87,-59.22C407.57,-50.44 468.47,-33.58 509.18,-22.3"/>
<polygon fill="midnightblue" stroke="midnightblue" points="510.36,-25.61 519.06,-19.57 508.49,-18.86 510.36,-25.61"/>
</g>
</g>
</svg>
